<svg xmlns="http://www.w3.org/2000/svg" viewBox="0 0 1000 1000"><defs><style>.cls-1{fill:#0070ba;}.cls-2{fill:#66cb92;}</style></defs><g id="Grafik"><path class="cls-1" d="M475.86,594.08H443.91a13.43,13.43,0,0,1-8.75-2.74,16.86,16.86,0,0,1-5.07-6.8L413.5,538.41h-92l-16.59,46.13a15,15,0,0,1-4.76,6.57,13.16,13.16,0,0,1-8.75,3H259.14L346.53,368h42.09Zm-73-85.37-27-75.21q-2-5-4.15-11.89t-4.3-14.85q-2,8-4.14,14.93t-4.15,12.12l-26.88,74.9Z"/><path class="cls-1" d="M571.08,368q22.27,0,38.55,5.32t26.88,14.85A58.87,58.87,0,0,1,652.25,411a79.92,79.92,0,0,1,5.15,29.08,81.48,81.48,0,0,1-5.38,30.1A62.49,62.49,0,0,1,635.9,493.7q-10.75,9.84-27,15.32t-37.86,5.47H540.21v79.59H498.89V368Zm0,113.68a61.24,61.24,0,0,0,19.82-2.9A37.37,37.37,0,0,0,605,470.48a33.6,33.6,0,0,0,8.37-13.14,51.18,51.18,0,0,0,2.76-17.28,46.38,46.38,0,0,0-2.76-16.41A32.51,32.51,0,0,0,605,411.14a36.86,36.86,0,0,0-14-7.9,65.17,65.17,0,0,0-20-2.74H540.21v81.16Z"/><path class="cls-1" d="M730.51,594.08H689V368h41.47Z"/><path class="cls-2" d="M730.51,656.44H261.45a5,5,0,0,1,0-10H730.51a5,5,0,0,1,0,10Z"/><path class="cls-1" d="M500,49,100.12,274.5v451L500,951,899.88,725.5v-451ZM871.18,709.32,500,918.63,128.82,709.32V290.68L500,81.37,871.18,290.68Z"/><path class="cls-1" d="M495.09,119.37l-329.77,186-5.09,2.87V691.81l5.09,2.86,329.77,186,4.91,2.77,4.91-2.77,329.77-186,5.09-2.86V308.2l-5.09-2.87-329.77-186L500,116.6ZM829.77,314V686L500,871.93,170.23,686V314L500,128.08Z"/></g></svg>