<?xml version="1.0" encoding="utf-8"?>
<!-- Generator: Adobe Illustrator 23.0.6, SVG Export Plug-In . SVG Version: 6.00 Build 0)  -->
<svg version="1.1" id="Ebene_1" xmlns="http://www.w3.org/2000/svg" xmlns:xlink="http://www.w3.org/1999/xlink" x="0px" y="0px"
	 width="1000px" height="1000px" viewBox="0 0 1000 1000" enable-background="new 0 0 1000 1000" xml:space="preserve">
<g display="none">
	<path display="inline" fill="#FFFFFF" d="M60.7,765.4c0,27.8,22.6,50.3,50.3,50.3h778c27.8,0,50.3-22.6,50.3-50.3V279.9H60.7V765.4
		z M420.9,381.2h313.5c5.4,0,9.8,4.4,9.8,9.8c0,5.4-4.4,9.8-9.8,9.8H420.9c-5.4,0-9.8-4.4-9.8-9.8
		C411.1,385.6,415.5,381.2,420.9,381.2z M420.7,424.4h177.9c5.4,0,9.8,4.4,9.8,9.8c0.1,5.5-4.3,9.8-9.7,9.8h-178
		c-5.4,0-9.8-4.4-9.8-9.8C410.9,428.8,415.3,424.4,420.7,424.4z M420,513.8h313.5c5.4,0,9.8,4.4,9.8,9.8c0.1,5.5-4.3,9.8-9.7,9.8
		H420c-5.4,0-9.8-4.4-9.8-9.8S414.6,513.8,420,513.8z M420,557.2h177.9c5.4,0,9.8,4.4,9.8,9.8c0.1,5.4-4.3,9.8-9.7,9.8H420
		c-5.4,0-9.8-4.4-9.8-9.8S414.6,557.2,420,557.2z M420,651.9h313.5c5.4,0,9.8,4.4,9.8,9.8c0.1,5.4-4.3,9.8-9.7,9.8H420
		c-5.4,0-9.8-4.4-9.8-9.8S414.6,651.9,420,651.9z M420,695.1h177.9c5.4,0,9.8,4.4,9.8,9.8c0.1,5.5-4.3,9.8-9.7,9.8H420
		c-5.4,0-9.8-4.4-9.8-9.8S414.6,695.1,420,695.1z M348.2,383.5l-48,48l-21.6-21.6l6.8-6.8l14.7,14.9l41.3-41.3L348.2,383.5z
		 M305.2,364.4c6.3,0,12.5,1.4,18.2,3.3l-7.6,7.6c-3.4-1-6.8-1.5-10.6-1.5c-21.1,0-38.3,17.3-38.3,38.3c0,21.1,17.3,38.3,38.3,38.3
		c21.1,0,38.3-17.3,38.3-38.3v0.1h9.6c0,26.4-21.6,48-48,48c-26.4,0-48-21.6-48-48C257.2,386,278.8,364.4,305.2,364.4z M347.4,516.3
		l-48,48l-21.6-21.6l6.8-6.8l14.7,14.9l41.3-41.3L347.4,516.3z M304.4,497.2c6.3,0,12.5,1.4,18.2,3.3l-7.6,7.6
		c-3.4-1-6.8-1.5-10.6-1.5c-21.1,0-38.3,17.3-38.3,38.3c0,21.1,17.3,38.3,38.3,38.3c21.1,0,38.3-17.3,38.3-38.3v0.1h9.6
		c0,26.4-21.6,48-48,48c-26.4,0-48-21.6-48-48S278,497.2,304.4,497.2z M347.4,654.2l-48,48l-21.6-21.6l6.8-6.8l14.7,14.9l41.3-41.3
		L347.4,654.2z M304.4,635.1c6.3,0,12.5,1.4,18.2,3.3l-7.6,7.6c-3.4-1-6.8-1.5-10.6-1.5c-21.1,0-38.3,17.3-38.3,38.3
		s17.3,38.3,38.3,38.3c21.1,0,38.3-17.3,38.3-38.3v0.1h9.6c0,26.4-21.6,48-48,48c-26.4,0-48-21.6-48-48S278,635.1,304.4,635.1z"/>
	<path display="inline" fill="#0070BA" d="M889,173.5H111c-33.6,0-61.1,27.5-61.1,61.1v530.9c0,33.6,27.5,61.1,61.1,61.1h778
		c33.6,0,61.1-27.5,61.1-61.1V234.6C950.1,200.9,922.7,173.5,889,173.5z M939.3,765.4c0,27.8-22.6,50.3-50.3,50.3H111
		c-27.8,0-50.3-22.6-50.3-50.3V279.9h878.6V765.4z M859.9,226.4c0,8.1-6.6,14.7-14.7,14.7s-14.7-6.6-14.7-14.7
		c0-8.1,6.6-14.7,14.7-14.7S859.9,218.3,859.9,226.4z M816.7,226.4c0,8.1-6.6,14.7-14.7,14.7s-14.7-6.6-14.7-14.7
		c0-8.1,6.6-14.7,14.7-14.7S816.7,218.3,816.7,226.4z M888.3,211.7c8.1,0,14.7,6.6,14.7,14.7c0,8.1-6.6,14.7-14.7,14.7
		s-14.7-6.6-14.7-14.7C873.6,218.3,880.2,211.7,888.3,211.7z"/>
	<polygon display="inline" fill="#66CB92" points="285.4,403.1 278.7,409.9 300.3,431.5 348.2,383.5 341.4,376.7 300.2,418 	"/>
	<path display="inline" fill="#66CB92" d="M305.2,460.3c26.4,0,48-21.6,48-48h-9.6v-0.1c0,21.1-17.3,38.3-38.3,38.3
		c-21.1,0-38.3-17.3-38.3-38.3c0-21.1,17.3-38.3,38.3-38.3c3.8,0,7.2,0.5,10.6,1.5l7.6-7.6c-5.8-2-12-3.3-18.2-3.3
		c-26.4,0-48,21.6-48,48C257.2,438.7,278.8,460.3,305.2,460.3z"/>
	<path display="inline" fill="#66CB92" d="M420.9,400.8h313.5c5.4,0,9.8-4.4,9.8-9.8c0-5.4-4.4-9.8-9.8-9.8H420.9
		c-5.4,0-9.8,4.4-9.8,9.8C411.1,396.4,415.5,400.8,420.9,400.8z"/>
	<path display="inline" fill="#0070BA" d="M420.7,444h178c5.4,0,9.8-4.3,9.7-9.8c0-5.4-4.4-9.8-9.8-9.8H420.7
		c-5.4,0-9.8,4.4-9.8,9.8C410.9,439.6,415.3,444,420.7,444z"/>
	<polygon display="inline" fill="#66CB92" points="284.7,535.9 277.9,542.7 299.5,564.2 347.4,516.3 340.7,509.5 299.4,550.8 	"/>
	<path display="inline" fill="#66CB92" d="M304.4,593.1c26.4,0,48-21.6,48-48h-9.6V545c0,21.1-17.3,38.3-38.3,38.3
		c-21.1,0-38.3-17.3-38.3-38.3c0-21.1,17.3-38.3,38.3-38.3c3.8,0,7.2,0.5,10.6,1.5l7.6-7.6c-5.8-2-12-3.3-18.2-3.3
		c-26.4,0-48,21.6-48,48S278,593.1,304.4,593.1z"/>
	<path display="inline" fill="#66CB92" d="M420,533.4h313.6c5.4,0,9.8-4.3,9.7-9.8c0-5.4-4.4-9.8-9.8-9.8H420
		c-5.4,0-9.8,4.4-9.8,9.8S414.6,533.4,420,533.4z"/>
	<path display="inline" fill="#0070BA" d="M420,576.8h178c5.4,0,9.8-4.4,9.7-9.8c0-5.4-4.4-9.8-9.8-9.8H420c-5.4,0-9.8,4.4-9.8,9.8
		S414.6,576.8,420,576.8z"/>
	<path display="inline" fill="#66CB92" d="M304.4,731c26.4,0,48-21.6,48-48h-9.6V683c0,21.1-17.3,38.3-38.3,38.3
		c-21.1,0-38.3-17.3-38.3-38.3s17.3-38.3,38.3-38.3c3.8,0,7.2,0.5,10.6,1.5l7.6-7.6c-5.8-2-12-3.3-18.2-3.3c-26.4,0-48,21.6-48,48
		S278,731,304.4,731z"/>
	<polygon display="inline" fill="#66CB92" points="284.7,673.9 277.9,680.6 299.5,702.2 347.4,654.2 340.7,647.5 299.4,688.8 	"/>
	<path display="inline" fill="#66CB92" d="M420,671.5h313.6c5.4,0,9.8-4.4,9.7-9.8c0-5.4-4.4-9.8-9.8-9.8H420
		c-5.4,0-9.8,4.4-9.8,9.8S414.6,671.5,420,671.5z"/>
	<path display="inline" fill="#0070BA" d="M420,714.8h178c5.4,0,9.8-4.3,9.7-9.8c0-5.4-4.4-9.8-9.8-9.8H420c-5.4,0-9.8,4.4-9.8,9.8
		S414.6,714.8,420,714.8z"/>
	<circle display="inline" fill="#FFFFFF" cx="802" cy="226.4" r="14.7"/>
	<circle display="inline" fill="#FFFFFF" cx="845.2" cy="226.4" r="14.7"/>
	<circle display="inline" fill="#FFFFFF" cx="888.3" cy="226.4" r="14.7"/>
</g>
<g display="none">
	<path display="inline" fill="none" d="M623.1,752.1H706c48.7,0,91.6,24.9,116.7,62.6V124.2H304v751.5H484
		C492.1,806.1,551.3,752.1,623.1,752.1z M758.3,629.1c-8.1,51.6-56.5,86.8-108.1,78.7c-51.6-8.1-86.8-56.5-78.7-108.1
		c8.1-51.6,56.5-86.8,108.1-78.7C731.2,529.2,766.4,577.6,758.3,629.1z M411.9,215.3h298.7v16.3H411.9V215.3z M411.9,267.8h298.7
		v16.3H411.9V267.8z M411.9,320.3h298.7v16.3H411.9V320.3z"/>
	<path display="inline" fill="#66CB92" d="M706,752.1h-82.9c-71.8,0-131,54-139.1,123.7h338.6v-61.1
		C797.6,776.9,754.7,752.1,706,752.1z"/>
	<path display="inline" fill="#0070BA" d="M835.5,888.6v-49.8V663.4v-552H205.9c-22.8,0-41.4,18.6-41.4,41.4v694.3
		c0,22.8,18.6,41.4,41.4,41.4h181.5h95.7H835.5z M304,875.8V124.2h518.7v690.4v61.1H484H304z"/>
	
		<ellipse transform="matrix(0.7071 -0.7071 0.7071 0.7071 -239.7276 650.157)" display="inline" fill="#66CB92" cx="664.9" cy="614.5" rx="94.5" ry="94.5"/>
	<rect x="411.9" y="320.3" display="inline" fill="#66CB92" width="298.7" height="16.3"/>
	<rect x="411.9" y="267.8" display="inline" fill="#0070BA" width="298.7" height="16.3"/>
	<rect x="411.9" y="215.3" display="inline" fill="#66CB92" width="298.7" height="16.3"/>
</g>
<g display="none">
	<path display="inline" fill="none" d="M61,765.2c0,1.2,0.1,2.4,0.1,3.5v-8.2C85.8,723.4,128,699,175.9,699h81.4
		c68.8,0,125.8,50.5,136,116.5h495.4c27.7,0,50.3-22.6,50.3-50.3V280H61V765.2z M858.8,672.3l-19.6,6.4c-1.3,4.4-3,8.4-5.1,12.5
		l9.4,18.6L827.4,726l-18.6-9.4c-4,2-8.1,4-12.5,5.1l-6.4,19.6H767l-6.4-19.6c-4.4-1.3-8.4-3-12.5-5.1l-18.6,9.4l-16.2-16.2
		l9.4-18.6c-2-4-4-8.1-5.1-12.5l-19.6-6.4v-22.9l19.6-6.4c1.3-4.4,3-8.4,5.1-12.5l-9.4-18.6l16.2-16.2l18.6,9.4c4-2,8.1-4,12.5-5.1
		l6.4-19.6h22.9l6.4,19.6c4.4,1.3,8.4,3,12.5,5.1l18.6-9.4l16.2,16.2l-9.4,18.6c2,4,4,8.1,5.1,12.5l19.6,6.4V672.3z M538.5,375.3
		h313.3c5.4,0,9.8,4.4,9.8,9.8c0,5.4-4.4,9.8-9.8,9.8H538.5c-5.4,0-9.8-4.4-9.8-9.8C528.7,379.7,533.1,375.3,538.5,375.3z
		 M537.7,439.4h313.3c5.4,0,9.8,4.4,9.8,9.8c0,5.4-4.4,9.8-9.8,9.8H537.7c-5.4,0-9.8-4.4-9.8-9.8
		C527.9,443.8,532.3,439.4,537.7,439.4z M527.9,508.7c0-5.4,4.4-9.8,9.8-9.8h313.3c5.4,0,9.8,4.4,9.8,9.8v0c0,5.4-4.4,9.8-9.8,9.8
		H537.7C532.3,518.5,527.9,514.1,527.9,508.7L527.9,508.7z M216.2,470.8c51.3,0,92.9,41.6,92.9,92.9c0,51.3-41.6,92.9-92.9,92.9
		c-51.3,0-92.9-41.6-92.9-92.9C123.2,512.4,164.8,470.8,216.2,470.8z"/>
	<path display="inline" fill="none" d="M832.4,646.7c-1.3-5.1-3.4-10.1-6.1-14.5l-1-2l8.8-17.2l-8.1-8.1l-17.2,8.8l-2-1
		c-4.4-2.7-9.4-4.7-14.5-6.1l-2-0.7l-6.1-18.2h-11.5l-6.1,18.2l-2,0.7c-5.1,1.3-9.8,3.4-14.5,6.1l-2,1l-17.2-8.8l-8.1,8.1l8.8,17.2
		l-1,2c-2.7,4.4-4.7,9.4-6.1,14.5l-0.7,2l-18.2,6.1v11.5l18.2,6.1l0.7,2c1.3,5.1,3.4,10.1,6.1,14.5l1,2l-8.8,17.2l8.1,8.1l17.2-8.8
		l2,1c4.4,2.7,9.4,4.7,14.5,6.1l2,0.7l6.1,18.2h11.5l6.1-18.2l2-0.7c5.1-1.3,9.8-3.4,14.5-6.1l2-1l17.2,8.8l8.1-8.1l-8.8-17.2l1-2
		c2.7-4.4,4.7-9.4,6.1-14.5l0.7-2l18.2-6.1v-11.5l-18.2-6.1L832.4,646.7z M778.4,698.7c-20.9,0-38.1-17.2-38.1-38.1
		s17.2-38.1,38.1-38.1c20.9,0,38.1,17.2,38.1,38.1S799.4,698.7,778.4,698.7z"/>
	
		<ellipse transform="matrix(0.9925 -0.1222 0.1222 0.9925 -74.8723 100.0611)" display="inline" fill="none" cx="778.4" cy="660.5" rx="30" ry="30"/>
	<path display="inline" fill="#66CB92" d="M257.3,699h-81.4c-47.9,0-90,24.4-114.7,61.5v8.2c1.8,26.1,23.6,46.7,50.1,46.7h282
		C383.1,749.5,326.1,699,257.3,699z"/>
	
		<ellipse transform="matrix(0.7071 -0.7071 0.7071 0.7071 -335.2787 317.9649)" display="inline" fill="#66CB92" cx="216.2" cy="563.7" rx="92.9" ry="92.9"/>
	<path display="inline" fill="#0070BA" d="M888.7,173.7H111.3c-33.7,0-61.1,27.4-61.1,61.1v530.5c0,12.9,4,24.9,10.9,34.8
		c6.1,8.8,14.5,16,24.4,20.6c7.8,3.7,16.6,5.7,25.8,5.7h777.4c33.7,0,61.1-27.4,61.1-61.1V234.8
		C949.7,201.1,922.4,173.7,888.7,173.7z M205.1,226.6c0,8.1-6.6,14.7-14.7,14.7c-8.1,0-14.7-6.6-14.7-14.7c0-8.1,6.6-14.7,14.7-14.7
		C198.5,211.9,205.1,218.5,205.1,226.6z M162,226.6c0,8.1-6.6,14.7-14.7,14.7s-14.7-6.6-14.7-14.7c0-8.1,6.6-14.7,14.7-14.7
		S162,218.5,162,226.6z M104.1,211.9c8.1,0,14.7,6.6,14.7,14.7c0,8.1-6.6,14.7-14.7,14.7s-14.7-6.6-14.7-14.7
		C89.5,218.5,96,211.9,104.1,211.9z M939,765.2c0,27.7-22.6,50.3-50.3,50.3H393.3h-282c-26.5,0-48.3-20.7-50.1-46.7
		c-0.1-1.2-0.1-2.3-0.1-3.5V280H939V765.2z"/>
	<path display="inline" fill="#66CB92" d="M538.5,394.9h313.3c5.4,0,9.8-4.4,9.8-9.8c0-5.4-4.4-9.8-9.8-9.8H538.5
		c-5.4,0-9.8,4.4-9.8,9.8C528.7,390.6,533.1,394.9,538.5,394.9z"/>
	<path display="inline" fill="#0070BA" d="M537.7,459h313.3c5.4,0,9.8-4.4,9.8-9.8c0-5.4-4.4-9.8-9.8-9.8H537.7
		c-5.4,0-9.8,4.4-9.8,9.8C527.9,454.6,532.3,459,537.7,459z"/>
	<path display="inline" fill="#66CB92" d="M537.7,518.5h313.3c5.4,0,9.8-4.4,9.8-9.8v0c0-5.4-4.4-9.8-9.8-9.8H537.7
		c-5.4,0-9.8,4.4-9.8,9.8v0C527.9,514.1,532.3,518.5,537.7,518.5z"/>
	<circle display="inline" fill="#FFFFFF" cx="104.1" cy="226.6" r="14.7"/>
	<circle display="inline" fill="#FFFFFF" cx="147.3" cy="226.6" r="14.7"/>
	<circle display="inline" fill="#FFFFFF" cx="190.4" cy="226.6" r="14.7"/>
	<path display="inline" fill="#66CB92" d="M778.4,622.4c-20.9,0-38.1,17.2-38.1,38.1s17.2,38.1,38.1,38.1
		c20.9,0,38.1-17.2,38.1-38.1S799.4,622.4,778.4,622.4z M778.4,690.6c-16.5,0-30-13.5-30-30s13.5-30,30-30c16.5,0,30,13.5,30,30
		S795,690.6,778.4,690.6z"/>
	<path display="inline" fill="#0070BA" d="M834.1,630.5l9.4-18.6l-16.2-16.2l-18.6,9.4c-4-2-8.1-3.7-12.5-5.1l-6.4-19.6H767
		l-6.4,19.6c-4.4,1-8.4,3-12.5,5.1l-18.6-9.4l-16.2,16.2l9.4,18.6c-2,4-3.7,8.1-5.1,12.5l-19.6,6.4v22.9l19.6,6.4
		c1,4.4,3,8.4,5.1,12.5l-9.4,18.6l16.2,16.2l18.6-9.4c4,2,8.1,3.7,12.5,5.1l6.4,19.6h22.9l6.4-19.6c4.4-1,8.4-3,12.5-5.1l18.6,9.4
		l16.2-16.2l-9.4-18.6c2-4,3.7-8.1,5.1-12.5l19.6-6.4v-22.9l-19.6-6.4C838.2,638.6,836.1,634.5,834.1,630.5z M851.3,666.3l-18.2,6.1
		l-0.7,2c-1.3,5.1-3.4,10.1-6.1,14.5l-1,2l8.8,17.2l-8.1,8.1l-17.2-8.8l-2,1c-4.7,2.7-9.4,4.7-14.5,6.1l-2,0.7l-6.1,18.2h-11.5
		l-6.1-18.2l-2-0.7c-5.1-1.3-10.1-3.4-14.5-6.1l-2-1l-17.2,8.8l-8.1-8.1l8.8-17.2l-1-2c-2.7-4.4-4.7-9.4-6.1-14.5l-0.7-2l-18.2-6.1
		v-11.5l18.2-6.1l0.7-2c1.3-5.1,3.4-10.1,6.1-14.5l1-2l-8.8-17.2l8.1-8.1l17.2,8.8l2-1c4.7-2.7,9.4-4.7,14.5-6.1l2-0.7l6.1-18.2
		h11.5l6.1,18.2l2,0.7c5.1,1.3,10.1,3.4,14.5,6.1l2,1l17.2-8.8l8.1,8.1l-8.8,17.2l1,2c2.7,4.4,4.7,9.4,6.1,14.5l0.7,2l18.2,6.1
		V666.3z"/>
</g>
<g>
	<path fill="none" d="M397.6,444.9c-1-2.8-2.1-6-3.4-9.8c-1.2-3.8-2.4-7.8-3.6-12.2c-1.2,4.4-2.3,8.5-3.5,12.3
		c-1.2,3.8-2.3,7.1-3.4,9.9l-22.4,62.1h58.6L397.6,444.9z"/>
	<path fill="none" d="M576.9,482.4c4.6-1.6,8.5-3.9,11.6-6.9c3.1-3,5.4-6.6,6.9-10.9c1.5-4.3,2.3-9,2.3-14.4c0-5-0.8-9.5-2.3-13.5
		c-1.5-4-3.8-7.5-6.9-10.4c-3.1-2.9-6.9-5.1-11.6-6.6c-4.6-1.5-10.1-2.3-16.4-2.3h-25.7v67.3h25.7
		C566.8,484.8,572.2,484,576.9,482.4z"/>
	<path fill="none" d="M168.8,313.2v373.6L500,873.6l331.2-186.8V313.2L500,126.4L168.8,313.2z M373.2,390.6h34.9l72.3,187.3H454
		c-3,0-5.4-0.8-7.3-2.3c-1.9-1.5-3.3-3.4-4.1-5.6l-13.8-38.4h-76.2l-13.8,38.4c-0.7,2-2,3.8-4,5.5c-2,1.6-4.4,2.4-7.3,2.4h-26.6
		L373.2,390.6z M700.2,642.6H300.7v-17.2h399.5V642.6z M662.6,390.6h34.2v187.3h-34.2V390.6z M500.6,390.6h59.9
		c12.3,0,22.9,1.5,31.9,4.4c9,3,16.5,7.1,22.3,12.3c5.8,5.3,10.1,11.6,12.9,18.9c2.8,7.3,4.2,15.3,4.2,24c0,9.1-1.5,17.4-4.4,24.9
		c-2.9,7.5-7.4,14-13.4,19.4c-6,5.4-13.4,9.6-22.3,12.7c-8.9,3-19.3,4.5-31.2,4.5h-25.7v66.2h-34.2V390.6z"/>
	<path fill="#0070BA" d="M838.6,300.1L507.4,113.3c-2.3-1.3-4.8-1.9-7.4-1.9s-5.1,0.6-7.4,1.9L161.4,300.1
		c-4.7,2.7-7.6,7.7-7.6,13.1v373.6c0,5.4,2.9,10.4,7.6,13.1l331.2,186.8c2.3,1.3,4.8,1.9,7.4,1.9s5.1-0.6,7.4-1.9l331.2-186.8
		c4.7-2.7,7.6-7.7,7.6-13.1V313.2C846.3,307.8,843.3,302.8,838.6,300.1z M831.2,686.8L500,873.6L168.8,686.8V313.2L500,126.4
		l331.2,186.8V686.8z"/>
	<path fill="#66CB92" d="M334.8,575.5c2-1.6,3.3-3.4,4-5.5l13.8-38.4h76.2l13.8,38.4c0.8,2.2,2.2,4.1,4.1,5.6
		c1.9,1.5,4.3,2.3,7.3,2.3h26.5l-72.3-187.3h-34.9l-72.3,187.3h26.6C330.4,577.9,332.9,577.1,334.8,575.5z M383.8,445.1
		c1.1-2.8,2.2-6.1,3.4-9.9c1.2-3.8,2.3-7.9,3.5-12.3c1.2,4.4,2.4,8.5,3.6,12.2c1.2,3.8,2.4,7,3.4,9.8l22.5,62.4h-58.6L383.8,445.1z"
		/>
	<path fill="#66CB92" d="M534.8,511.8h25.7c11.9,0,22.3-1.5,31.2-4.5c8.9-3,16.3-7.2,22.3-12.7c6-5.4,10.4-11.9,13.4-19.4
		c2.9-7.5,4.4-15.8,4.4-24.9c0-8.7-1.4-16.7-4.2-24c-2.8-7.3-7.1-13.6-12.9-18.9c-5.8-5.3-13.3-9.4-22.3-12.3
		c-9-3-19.7-4.4-31.9-4.4h-59.9v187.3h34.2V511.8z M534.8,417.5h25.7c6.3,0,11.8,0.8,16.4,2.3c4.6,1.5,8.5,3.7,11.6,6.6
		c3.1,2.9,5.4,6.3,6.9,10.4c1.5,4,2.3,8.6,2.3,13.5c0,5.3-0.8,10.1-2.3,14.4c-1.5,4.3-3.8,7.9-6.9,10.9c-3.1,3-6.9,5.3-11.6,6.9
		c-4.6,1.6-10.1,2.4-16.4,2.4h-25.7V417.5z"/>
	<rect x="662.6" y="390.6" fill="#66CB92" width="34.2" height="187.3"/>
	<rect x="300.7" y="625.4" fill="#66CB92" width="399.5" height="17.2"/>
</g>
</svg>
