<svg xmlns="http://www.w3.org/2000/svg" viewBox="0 0 1000 1000"><defs><style>.cls-1{fill:#9fcde0;}.cls-2{fill:#0070ba;}.cls-3{fill:#66cb92;}</style></defs><g id="Grafik"><path class="cls-1" d="M803.87,265l163.64,6.46a8.37,8.37,0,0,1,4.6,15.13L839.74,383l44.42,157.62a8.37,8.37,0,0,1-13,9.05L738.58,453.62l-136.18,91A8.38,8.38,0,0,1,589.78,535l50.41-155.81L511.61,277.81a8.37,8.37,0,0,1,5.17-14.95l163.76-.21L737.25,109a8.38,8.38,0,0,1,15.82.31Z"/><path class="cls-2" d="M876.1,556.33a13.3,13.3,0,0,1-7.84-2.58l-129.79-94-133.29,89A13.37,13.37,0,0,1,585,533.49L634.36,381,508.51,281.73a13.37,13.37,0,0,1,8.26-23.87l160.29-.2,55.5-150.37a13.37,13.37,0,0,1,25.26.48l49.73,152.38,160.15,6.32a13.37,13.37,0,0,1,7.35,24.17L845.5,385,889,539.29a13.22,13.22,0,0,1-5.21,14.6A13.36,13.36,0,0,1,876.1,556.33ZM738.7,447.52l135.42,98.13a3.37,3.37,0,0,0,5.23-3.64L834,381l135.17-98.48a3.37,3.37,0,0,0-1.85-6.09l-167.11-6.6-51.88-159a3.38,3.38,0,0,0-6.38-.13L684,267.65l-167.24.21a3.37,3.37,0,0,0-2.09,6L646,377.45,594.54,536.57a3.37,3.37,0,0,0,5.08,3.84Z"/><path class="cls-2" d="M916.6,131.93l33.65,1.33a1.72,1.72,0,0,1,.94,3.11L924,156.2l9.13,32.41a1.72,1.72,0,0,1-2.67,1.86l-27.26-19.76-28,18.71a1.73,1.73,0,0,1-2.6-2l10.37-32-26.44-20.85a1.73,1.73,0,0,1,1.06-3.08l33.67,0L902.9,99.86a1.73,1.73,0,0,1,3.26.06Z"/><path class="cls-2" d="M604.88,131.93l33.64,1.33a1.72,1.72,0,0,1,1,3.11L612.25,156.2l9.14,32.41a1.72,1.72,0,0,1-2.67,1.86l-27.27-19.76-28,18.71a1.72,1.72,0,0,1-2.59-2l10.36-32-26.44-20.85a1.73,1.73,0,0,1,1.07-3.08l33.67,0,11.66-31.59a1.72,1.72,0,0,1,3.25.06Z"/><path class="cls-3" d="M257.07,586.73v34.62L173,663l84,41.6v34.62L135.89,678V647.88Z"/><path class="cls-3" d="M417.63,547.08l31.55,5.58L302,813.18l-31.55-5.59Z"/><path class="cls-3" d="M592.15,678,471,739.18V704.56L555,663l-84-41.61V586.73l121.18,61.15Z"/><path class="cls-2" d="M855.36,572.3a5.15,5.15,0,0,0-4.51,5.19V876.26a20,20,0,0,1-20,20H49.44a20,20,0,0,1-20-20V366.17H549.86a5,5,0,0,0,3.26-8.83l-69.24-59.2a5,5,0,0,0-3.26-1.2H49.44a30,30,0,0,0-30,30V876.26a30,30,0,0,0,30,30H830.85a30,30,0,0,0,30-30v-299A5,5,0,0,0,855.36,572.3ZM131.77,322.36a11.1,11.1,0,1,1-11.1,11.1A11.12,11.12,0,0,1,131.77,322.36Zm-33.41,0a11.1,11.1,0,1,1-11.11,11.1A11.11,11.11,0,0,1,98.36,322.36Zm-33.42,0a11.1,11.1,0,1,1-11.1,11.1A11.11,11.11,0,0,1,64.94,322.36Z"/></g></svg>