<svg xmlns="http://www.w3.org/2000/svg" viewBox="0 0 1000 1000"><defs><style>.cls-1{fill:#9fcde0;}.cls-2{fill:#66cb92;}.cls-3{fill:#0070ba;}</style></defs><g id="Ebene_5" data-name="Ebene 5"><path class="cls-1" d="M230.5,815.68a11.82,11.82,0,0,1-4.69-1A11.54,11.54,0,0,1,218.75,804V756.29a1.67,1.67,0,0,0-1.7-1.7H69.81a38.55,38.55,0,0,1-38.5-38.51V474.77a38.54,38.54,0,0,1,38.5-38.5h133a5,5,0,0,1,0,10h-133a28.53,28.53,0,0,0-28.5,28.5V716.08a28.53,28.53,0,0,0,28.5,28.51H217.05a11.71,11.71,0,0,1,11.7,11.7V804a1.7,1.7,0,0,0,2.87,1.23l60.79-57.42a11.67,11.67,0,0,1,8-3.18H634.39a28.53,28.53,0,0,0,28.5-28.51V682.5a5,5,0,0,1,10,0v33.58a38.55,38.55,0,0,1-38.5,38.51H300.45a1.68,1.68,0,0,0-1.18.46l-60.79,57.41A11.57,11.57,0,0,1,230.5,815.68Z"/><path class="cls-2" d="M769.49,724.39a11.55,11.55,0,0,1-8-3.23l-60.8-57.42a1.67,1.67,0,0,0-1.17-.46H365.61a38.54,38.54,0,0,1-38.5-38.51v-48a5,5,0,0,1,10,0v48a28.53,28.53,0,0,0,28.5,28.51H699.55a11.68,11.68,0,0,1,8.05,3.2l60.78,57.41a1.6,1.6,0,0,0,1.84.33,1.62,1.62,0,0,0,1-1.56V665a11.72,11.72,0,0,1,11.7-11.7H930.19a28.53,28.53,0,0,0,28.5-28.51V383.47A28.53,28.53,0,0,0,930.19,355H879.25a5,5,0,0,1,0-10h50.94a38.55,38.55,0,0,1,38.5,38.51v241.3a38.54,38.54,0,0,1-38.5,38.51H783a1.7,1.7,0,0,0-1.7,1.7v47.68a11.56,11.56,0,0,1-7.07,10.75A12,12,0,0,1,769.49,724.39Z"/><path class="cls-3" d="M726.57,366.28a35.37,35.37,0,0,0-13.09-9.38,45.22,45.22,0,0,0-17.64-3.26,45.76,45.76,0,0,0-17.78,3.26,35.26,35.26,0,0,0-13.15,9.38,41.91,41.91,0,0,0-8.21,14.93,70.73,70.73,0,0,0,0,39.75,42,42,0,0,0,8.21,14.94,34.79,34.79,0,0,0,13.15,9.32,46.32,46.32,0,0,0,17.78,3.21,45.77,45.77,0,0,0,17.64-3.21,34.89,34.89,0,0,0,13.09-9.32A42,42,0,0,0,734.78,421a70.73,70.73,0,0,0,0-39.75A41.91,41.91,0,0,0,726.57,366.28Z"/><path class="cls-3" d="M516.8,368.78q-1.78-5.25-3.51-11.37-1.63,6.22-3.37,11.52t-3.26,9.17L493,418.57h40.57L519.91,377.9Q518.59,374,516.8,368.78Z"/><path class="cls-3" d="M823.62,247.88H259a33.51,33.51,0,0,0-33.49,33.5V522.69A33.51,33.51,0,0,0,259,556.2H406.28a6.69,6.69,0,0,1,6.7,6.7v47.67a6.7,6.7,0,0,0,11.3,4.87L485.07,558a6.72,6.72,0,0,1,4.61-1.81H823.62a33.5,33.5,0,0,0,33.49-33.51V281.38A33.49,33.49,0,0,0,823.62,247.88ZM409.28,353.33H348.33V391h50.76v26.6H348.33v57.79H313.67V326.83h95.61Zm152.42,122a12.3,12.3,0,0,1-7.39-2.09,10.74,10.74,0,0,1-4-5.35L541.52,442H485.05l-8.76,25.89a11.81,11.81,0,0,1-11.22,7.44h-26.9l57.48-148.51h35.27l57.49,148.51Zm191.22,27.83a39,39,0,0,1-11.11-1.48,18.66,18.66,0,0,1-8.87-6L714.5,475q-4.5.91-9.13,1.42a87.15,87.15,0,0,1-9.53.51,83.16,83.16,0,0,1-31.6-5.8A70.88,70.88,0,0,1,624.14,431a83.53,83.53,0,0,1,0-59.93A71.31,71.31,0,0,1,639.83,347a72.61,72.61,0,0,1,24.41-16,83.16,83.16,0,0,1,31.6-5.81,82.2,82.2,0,0,1,31.55,5.86,72.77,72.77,0,0,1,24.31,16.06,71.68,71.68,0,0,1,15.65,24.05A79.62,79.62,0,0,1,772.9,401a83.15,83.15,0,0,1-2,18.4,77.23,77.23,0,0,1-5.7,16.56A70.86,70.86,0,0,1,756,450.37a68.08,68.08,0,0,1-12.38,11.72l37.61,41.08Z"/></g></svg>