<svg xmlns="http://www.w3.org/2000/svg" viewBox="0 0 1000 1000"><defs><style>.cls-1{fill:#66cb92;}.cls-2{fill:#0070ba;}</style></defs><g id="Grafik"><path class="cls-1" d="M216,315.48a52.57,52.57,0,1,0,52.57,52.57A52.56,52.56,0,0,0,216,315.48Zm29.11,41.2-35.55,35.56a5,5,0,0,1-7.07,0L187.9,377.66a5,5,0,0,1,7.07-7.07l11,11,32-32a5,5,0,1,1,7.07,7.07Z"/><path class="cls-1" d="M216,484.39A52.58,52.58,0,1,0,268.56,537,52.57,52.57,0,0,0,216,484.39ZM245.1,525.6l-35.55,35.55a5,5,0,0,1-7.07,0L187.9,546.58a5,5,0,0,1,7.07-7.07l11,11,32-32a5,5,0,0,1,7.07,7.07Z"/><path class="cls-1" d="M216,653.31a52.57,52.57,0,1,0,52.57,52.57A52.57,52.57,0,0,0,216,653.31Zm29.11,41.21-35.55,35.55a5,5,0,0,1-7.07,0L187.9,715.49a5,5,0,1,1,7.07-7.07l11,11.05,32-32a5,5,0,1,1,7.07,7.08Z"/><path class="cls-2" d="M521,389.28H338.66a5,5,0,0,1,0-10H521a5,5,0,0,1,0,10Z"/><path class="cls-1" d="M649.64,356.82h-311a5,5,0,0,1,0-10h311a5,5,0,0,1,0,10Z"/><path class="cls-2" d="M521,554.54H338.66a5,5,0,0,1,0-10H521a5,5,0,0,1,0,10Z"/><path class="cls-1" d="M649.64,522.08h-311a5,5,0,1,1,0-10h311a5,5,0,0,1,0,10Z"/><path class="cls-2" d="M521,727.11H338.66a5,5,0,1,1,0-10H521a5,5,0,0,1,0,10Z"/><path class="cls-1" d="M649.64,694.65h-311a5,5,0,1,1,0-10h311a5,5,0,0,1,0,10Z"/><path class="cls-2" d="M945.38,155.92H54.62a30,30,0,0,0-30,30V814.08a30,30,0,0,0,30,30H945.38a30,30,0,0,0,30-30V185.92A30,30,0,0,0,945.38,155.92ZM151.07,184.49a12.1,12.1,0,1,1-12.1,12.1A12.12,12.12,0,0,1,151.07,184.49Zm-37.81,0a12.1,12.1,0,1,1-12.1,12.1A12.11,12.11,0,0,1,113.26,184.49Zm-37.81,0a12.1,12.1,0,1,1-12.1,12.1A12.12,12.12,0,0,1,75.45,184.49ZM965.38,814.08a20,20,0,0,1-20,20H54.62a20,20,0,0,1-20-20V233.36H965.38Z"/></g></svg>