<svg xmlns="http://www.w3.org/2000/svg" viewBox="0 0 1000 1000"><defs><style>.cls-1{fill:#9fcde0;}.cls-2{fill:#0070ba;}.cls-3{fill:#66cb92;}</style></defs><g id="Grafik"><path class="cls-1" d="M29.62,229.64V813.69a25.1,25.1,0,0,0,25.1,25.1H222.48V229.64Zm29.16,83.2h65.65a5,5,0,0,1,0,10H58.78a5,5,0,0,1,0-10Zm0,32.94H169.11a5,5,0,0,1,0,10H58.78a5,5,0,1,1,0-10Zm0,32.93h92.84a5,5,0,0,1,0,10H58.78a5,5,0,0,1,0-10Zm0,98.81h77.84a5,5,0,0,1,0,10H58.78a5,5,0,1,1,0-10Zm-5-27.94a5,5,0,0,1,5-5h87.87a5,5,0,1,1,0,10H58.78A5,5,0,0,1,53.78,449.58Zm107.67,70.88H58.78a5,5,0,1,1,0-10H161.45a5,5,0,0,1,0,10Zm25-98.81H58.78a5,5,0,1,1,0-10h127.7a5,5,0,1,1,0,10Z"/><rect class="cls-1" x="256.72" y="365.38" width="270" height="18" rx="9"/><rect class="cls-1" x="878.28" y="365.38" width="37.91" height="18" rx="9"/><rect class="cls-1" x="825.43" y="365.38" width="37.91" height="18" rx="9"/><rect class="cls-1" x="772.57" y="365.38" width="37.91" height="18" rx="9"/><rect class="cls-2" x="256.72" y="409.72" width="18" height="18" rx="9"/><rect class="cls-2" x="294.72" y="409.72" width="154.03" height="18" rx="9"/><rect class="cls-2" x="468.76" y="409.72" width="154.03" height="18" rx="9"/><rect class="cls-2" x="642.79" y="409.72" width="273.4" height="18" rx="9"/><rect class="cls-3" x="256.72" y="454.06" width="18" height="18" rx="9"/><rect class="cls-3" x="294.72" y="454.06" width="154.03" height="18" rx="9"/><rect class="cls-3" x="468.76" y="454.06" width="154.03" height="18" rx="9"/><rect class="cls-3" x="642.79" y="454.06" width="273.4" height="18" rx="9"/><rect class="cls-2" x="256.72" y="498.4" width="18" height="18" rx="9"/><rect class="cls-2" x="294.72" y="498.4" width="154.03" height="18" rx="9"/><rect class="cls-2" x="468.76" y="498.4" width="154.03" height="18" rx="9"/><rect class="cls-2" x="642.79" y="498.4" width="273.4" height="18" rx="9"/><rect class="cls-1" x="256.72" y="542.74" width="18" height="18" rx="9"/><rect class="cls-1" x="294.72" y="542.74" width="154.03" height="18" rx="9"/><rect class="cls-1" x="468.76" y="542.74" width="154.03" height="18" rx="9"/><rect class="cls-1" x="642.79" y="542.74" width="273.4" height="18" rx="9"/><rect class="cls-3" x="256.72" y="587.08" width="18" height="18" rx="9"/><rect class="cls-3" x="294.72" y="587.08" width="154.03" height="18" rx="9"/><rect class="cls-3" x="468.76" y="587.08" width="154.03" height="18" rx="9"/><rect class="cls-3" x="642.79" y="587.08" width="273.4" height="18" rx="9"/><rect class="cls-2" x="256.72" y="631.42" width="18" height="18" rx="9"/><rect class="cls-2" x="294.72" y="631.42" width="154.03" height="18" rx="9"/><rect class="cls-2" x="468.76" y="631.42" width="154.03" height="18" rx="9"/><rect class="cls-2" x="642.79" y="631.42" width="273.4" height="18" rx="9"/><rect class="cls-3" x="256.72" y="675.76" width="18" height="18" rx="9"/><rect class="cls-3" x="294.72" y="675.76" width="154.03" height="18" rx="9"/><rect class="cls-3" x="468.76" y="675.76" width="154.03" height="18" rx="9"/><rect class="cls-3" x="642.79" y="675.76" width="273.4" height="18" rx="9"/><rect class="cls-1" x="256.72" y="720.1" width="18" height="18" rx="9"/><rect class="cls-1" x="294.72" y="720.1" width="154.03" height="18" rx="9"/><rect class="cls-1" x="468.76" y="720.1" width="154.03" height="18" rx="9"/><rect class="cls-1" x="642.79" y="720.1" width="273.4" height="18" rx="9"/><path class="cls-2" d="M526.72,340.16H258.23a5,5,0,0,1,0-10H526.72a5,5,0,0,1,0,10Z"/><path class="cls-2" d="M945.38,155.92H54.62a30,30,0,0,0-30,30V814.08a30,30,0,0,0,30,30H945.38a30,30,0,0,0,30-30V185.92A30,30,0,0,0,945.38,155.92ZM151.07,184.49a12.11,12.11,0,1,1-12.1,12.1A12.12,12.12,0,0,1,151.07,184.49Zm-37.81,0a12.11,12.11,0,1,1-12.1,12.1A12.11,12.11,0,0,1,113.26,184.49Zm-37.81,0a12.11,12.11,0,1,1-12.1,12.1A12.12,12.12,0,0,1,75.45,184.49ZM965.38,814.08a20,20,0,0,1-20,20H54.62a20,20,0,0,1-20-20V233.36H965.38Z"/></g></svg>