<svg xmlns="http://www.w3.org/2000/svg" viewBox="0 0 1000 1000"><defs><style>.cls-1{fill:#9fcde0;}.cls-2{fill:#0070ba;}.cls-3{fill:#66cb92;}</style></defs><g id="Grafik"><path class="cls-1" d="M205.89,289.74a25.64,25.64,0,0,0-2.64.13,36.52,36.52,0,0,0-71.93,3.87,19,19,0,0,0-25.16,17.93,18.76,18.76,0,0,0,.76,5.33,13.43,13.43,0,0,0,0,26.85h98.92a27.06,27.06,0,1,0,0-54.11Z"/><path class="cls-2" d="M205.89,347.35H107A16.92,16.92,0,0,1,102.78,314a23.16,23.16,0,0,1-.12-2.36,22.48,22.48,0,0,1,22.46-22.46,23.28,23.28,0,0,1,3.35.24,40,40,0,0,1,77.45-3.21,30.56,30.56,0,0,1,0,61.11Zm-80.77-51.14A15.47,15.47,0,0,0,110.28,316a3.51,3.51,0,0,1-3.35,4.48,9.93,9.93,0,0,0,0,19.85h98.92a23.56,23.56,0,1,0,0-47.11c-.76,0-1.54,0-2.3.11a3.52,3.52,0,0,1-3.76-2.72,33,33,0,0,0-65,3.5,3.5,3.5,0,0,1-4.62,2.92A15.48,15.48,0,0,0,125.12,296.21Z"/><path class="cls-1" d="M853.14,201.76a18.67,18.67,0,0,0-2,.1,27.47,27.47,0,0,0-54.1,2.91,14.27,14.27,0,0,0-18.35,17.49,10.1,10.1,0,0,0,0,20.2h74.4a20.35,20.35,0,0,0,0-40.7Z"/><path class="cls-2" d="M853.14,246h-74.4a13.6,13.6,0,0,1-4.08-26.57c0-.38,0-.75,0-1.13a17.79,17.79,0,0,1,17.76-17.77,16.26,16.26,0,0,1,1.85.1,31,31,0,0,1,59.55-2.32,23.85,23.85,0,0,1-.65,47.69Zm-60.75-38.47a10.78,10.78,0,0,0-10.76,10.77,10.65,10.65,0,0,0,.43,3,3.5,3.5,0,0,1-3.35,4.48,6.6,6.6,0,0,0,0,13.2h74.4a16.85,16.85,0,1,0-1.65-33.62,3.51,3.51,0,0,1-3.76-2.72,24,24,0,0,0-47.2,2.54,3.5,3.5,0,0,1-4.62,2.92A10.75,10.75,0,0,0,792.39,207.49Z"/><polygon class="cls-2" points="480.64 338.46 461.1 372.31 477.14 372.31 477.14 454.59 484.14 454.59 484.14 372.31 500.19 372.31 480.64 338.46"/><polygon class="cls-2" points="556.66 420.74 556.66 338.46 549.66 338.46 549.66 420.74 533.62 420.74 553.16 454.59 572.71 420.74 556.66 420.74"/><path class="cls-2" d="M477.16,509.17H361.68a17,17,0,0,0,0,34.06H477.16a17,17,0,0,0,0-34.06ZM362.94,533.89a7.69,7.69,0,1,1,7.69-7.69A7.69,7.69,0,0,1,362.94,533.89Z"/><path class="cls-2" d="M477.16,552.39H361.68a17,17,0,0,0,0,34.07H477.16a17,17,0,0,0,0-34.07ZM362.94,577.12a7.7,7.7,0,1,1,7.69-7.69A7.7,7.7,0,0,1,362.94,577.12Z"/><path class="cls-2" d="M477.16,595.62H361.68a17,17,0,0,0,0,34.06H477.16a17,17,0,0,0,0-34.06ZM362.94,620.34a7.69,7.69,0,1,1,7.69-7.69A7.69,7.69,0,0,1,362.94,620.34Z"/><path class="cls-2" d="M477.16,638.84H361.68a17,17,0,0,0,0,34.07H477.16a17,17,0,0,0,0-34.07ZM362.94,663.57a7.7,7.7,0,1,1,7.69-7.69A7.7,7.7,0,0,1,362.94,663.57Z"/><path class="cls-3" d="M659.87,509.17H544.39a17,17,0,1,0,0,34.06H659.87a17,17,0,0,0,0-34.06ZM545.65,533.89a7.69,7.69,0,1,1,7.69-7.69A7.69,7.69,0,0,1,545.65,533.89Z"/><path class="cls-3" d="M659.87,552.39H544.39a17,17,0,1,0,0,34.07H659.87a17,17,0,0,0,0-34.07ZM545.65,577.12a7.7,7.7,0,1,1,7.69-7.69A7.7,7.7,0,0,1,545.65,577.12Z"/><path class="cls-3" d="M659.87,595.62H544.39a17,17,0,1,0,0,34.06H659.87a17,17,0,0,0,0-34.06ZM545.65,620.34a7.69,7.69,0,1,1,7.69-7.69A7.69,7.69,0,0,1,545.65,620.34Z"/><path class="cls-3" d="M659.87,638.84H544.39a17,17,0,1,0,0,34.07H659.87a17,17,0,0,0,0-34.07ZM545.65,663.57a7.7,7.7,0,1,1,7.69-7.69A7.7,7.7,0,0,1,545.65,663.57Z"/><path class="cls-1" d="M956,816.12H642.5a7.49,7.49,0,0,0-6.63-4H605.63V695.36a3.5,3.5,0,0,0-7,0V812.12H568.39a7.48,7.48,0,0,0-6.63,4h-102a7.49,7.49,0,0,0-6.63-4H422.92V695.36a3.5,3.5,0,0,0-7,0V812.12H385.68a7.48,7.48,0,0,0-6.63,4H44a3.5,3.5,0,0,0,0,7H379.05a7.48,7.48,0,0,0,6.63,4h67.48a7.49,7.49,0,0,0,6.63-4h102a7.48,7.48,0,0,0,6.63,4h67.48a7.49,7.49,0,0,0,6.63-4H956a3.5,3.5,0,0,0,0-7Z"/><path class="cls-2" d="M745,732.91H622.71a5,5,0,0,1,0-10H745c85,0,154.13-69.14,154.13-154.13S830,414.65,745,414.65c-5,0-10,.25-15,.73a5,5,0,0,1-5.37-3.89c-21.13-95.05-107.24-164-204.75-164A209.41,209.41,0,0,0,311.39,433.75a5,5,0,0,1-6.61,4.18,106.63,106.63,0,0,0-137.1,130.65,5,5,0,0,1-4.78,6.4,74,74,0,0,0,.33,147.93H398.84a5,5,0,1,1,0,10H163.23a84,84,0,0,1-6.76-167.66A116.63,116.63,0,0,1,302.2,426.62a219.8,219.8,0,0,1,431.16-21.56c3.9-.27,7.79-.41,11.64-.41,90.5,0,164.13,73.63,164.13,164.13S835.5,732.91,745,732.91Z"/><path class="cls-2" d="M581.55,732.91H440a5,5,0,1,1,0-10H581.55a5,5,0,0,1,0,10Z"/></g></svg>