<svg width="1000" height="700" xmlns="http://www.w3.org/2000/svg">
 <defs>
  <style>.cls-1{fill:#9fcde0;}.cls-2{fill:#0070ba;}.cls-3{fill:#66cb92;}</style>
 </defs>
 <g>
  <title>background</title>
  <rect fill="none" id="canvas_background" height="702" width="1002" y="-1" x="-1"/>
 </g>
 <g>
  <title>Layer 1</title>
  <g id="Grafik">
   <path id="svg_1" d="m205.89,134.74a25.64,25.64 0 0 0 -2.64,0.13a36.52,36.52 0 0 0 -71.93,3.87a19,19 0 0 0 -25.16,17.93a18.76,18.76 0 0 0 0.76,5.33a13.43,13.43 0 0 0 0,26.85l98.92,0a27.06,27.06 0 1 0 0,-54.11l0.05,0z" class="cls-1"/>
   <path id="svg_2" d="m205.89,192.35l-98.89,0a16.92,16.92 0 0 1 -4.22,-33.35a23.16,23.16 0 0 1 -0.12,-2.36a22.48,22.48 0 0 1 22.46,-22.46a23.28,23.28 0 0 1 3.35,0.24a40,40 0 0 1 77.45,-3.21a30.56,30.56 0 0 1 0,61.11l-0.03,0.03zm-80.74,-51.17a15.47,15.47 0 0 0 -14.87,19.82a3.51,3.51 0 0 1 -3.35,4.48a9.93,9.93 0 0 0 0,19.85l98.92,0a23.56,23.56 0 1 0 0,-47.11c-0.76,0 -1.54,0 -2.3,0.11a3.52,3.52 0 0 1 -3.76,-2.72a33,33 0 0 0 -65,3.5a3.5,3.5 0 0 1 -4.62,2.92a15.48,15.48 0 0 0 -5.05,-0.82l0.03,-0.03z" class="cls-2"/>
   <path id="svg_3" d="m853.14,46.76a18.67,18.67 0 0 0 -2,0.1a27.47,27.47 0 0 0 -54.1,2.91a14.27,14.27 0 0 0 -18.35,17.49a10.1,10.1 0 0 0 0,20.2l74.4,0a20.35,20.35 0 0 0 0,-40.7l0.05,0z" class="cls-1"/>
   <path id="svg_4" d="m853.14,91l-74.4,0a13.6,13.6 0 0 1 -4.08,-26.57c0,-0.38 0,-0.75 0,-1.13a17.79,17.79 0 0 1 17.76,-17.77a16.26,16.26 0 0 1 1.85,0.1a31,31 0 0 1 59.55,-2.32a23.85,23.85 0 0 1 -0.65,47.69l-0.03,0zm-60.72,-38.47a10.78,10.78 0 0 0 -10.76,10.77a10.65,10.65 0 0 0 0.43,3a3.5,3.5 0 0 1 -3.35,4.48a6.6,6.6 0 0 0 0,13.2l74.4,0a16.85,16.85 0 1 0 -1.65,-33.62a3.51,3.51 0 0 1 -3.76,-2.72a24,24 0 0 0 -47.2,2.54a3.5,3.5 0 0 1 -4.62,2.92a10.75,10.75 0 0 0 -3.52,-0.61l0.03,0.04z" class="cls-2"/>
   <polygon id="svg_5" points="480.6400146484375,183.45999145507812 461.1000061035156,217.30999755859375 477.1400146484375,217.30999755859375 477.1400146484375,299.5899963378906 484.1400146484375,299.5899963378906 484.1400146484375,217.30999755859375 500.19000244140625,217.30999755859375 480.6400146484375,183.45999145507812 " class="cls-2"/>
   <polygon id="svg_6" points="556.6599731445312,265.739990234375 556.6599731445312,183.45999145507812 549.6599731445312,183.45999145507812 549.6599731445312,265.739990234375 533.6199951171875,265.739990234375 553.1599731445312,299.5899963378906 572.7100219726562,265.739990234375 556.6599731445312,265.739990234375 " class="cls-2"/>
   <path id="svg_7" d="m477.16,354.17l-115.48,0a17,17 0 0 0 0,34.06l115.48,0a17,17 0 0 0 0,-34.06zm-114.22,24.72a7.69,7.69 0 1 1 7.69,-7.69a7.69,7.69 0 0 1 -7.69,7.69z" class="cls-2"/>
   <path id="svg_8" d="m477.16,397.39l-115.48,0a17,17 0 0 0 0,34.07l115.48,0a17,17 0 0 0 0,-34.07zm-114.22,24.73a7.7,7.7 0 1 1 7.69,-7.69a7.7,7.7 0 0 1 -7.69,7.69z" class="cls-2"/>
   <path id="svg_9" d="m477.16,440.62l-115.48,0a17,17 0 0 0 0,34.06l115.48,0a17,17 0 0 0 0,-34.06zm-114.22,24.72a7.69,7.69 0 1 1 7.69,-7.69a7.69,7.69 0 0 1 -7.69,7.69z" class="cls-2"/>
   <path id="svg_10" d="m477.16,483.84l-115.48,0a17,17 0 0 0 0,34.07l115.48,0a17,17 0 0 0 0,-34.07zm-114.22,24.73a7.7,7.7 0 1 1 7.69,-7.69a7.7,7.7 0 0 1 -7.69,7.69z" class="cls-2"/>
   <path id="svg_11" d="m659.87,354.17l-115.48,0a17,17 0 1 0 0,34.06l115.48,0a17,17 0 0 0 0,-34.06zm-114.22,24.72a7.69,7.69 0 1 1 7.69,-7.69a7.69,7.69 0 0 1 -7.69,7.69z" class="cls-3"/>
   <path id="svg_12" d="m659.87,397.39l-115.48,0a17,17 0 1 0 0,34.07l115.48,0a17,17 0 0 0 0,-34.07zm-114.22,24.73a7.7,7.7 0 1 1 7.69,-7.69a7.7,7.7 0 0 1 -7.69,7.69z" class="cls-3"/>
   <path id="svg_13" d="m659.87,440.62l-115.48,0a17,17 0 1 0 0,34.06l115.48,0a17,17 0 0 0 0,-34.06zm-114.22,24.72a7.69,7.69 0 1 1 7.69,-7.69a7.69,7.69 0 0 1 -7.69,7.69z" class="cls-3"/>
   <path id="svg_14" d="m659.87,483.84l-115.48,0a17,17 0 1 0 0,34.07l115.48,0a17,17 0 0 0 0,-34.07zm-114.22,24.73a7.7,7.7 0 1 1 7.69,-7.69a7.7,7.7 0 0 1 -7.69,7.69z" class="cls-3"/>
   <path id="svg_15" d="m956,661.12l-313.5,0a7.49,7.49 0 0 0 -6.63,-4l-30.24,0l0,-116.76a3.5,3.5 0 0 0 -7,0l0,116.76l-30.24,0a7.48,7.48 0 0 0 -6.63,4l-102,0a7.49,7.49 0 0 0 -6.63,-4l-30.21,0l0,-116.76a3.5,3.5 0 0 0 -7,0l0,116.76l-30.24,0a7.48,7.48 0 0 0 -6.63,4l-335.05,0a3.5,3.5 0 0 0 0,7l335.05,0a7.48,7.48 0 0 0 6.63,4l67.48,0a7.49,7.49 0 0 0 6.63,-4l102,0a7.48,7.48 0 0 0 6.63,4l67.48,0a7.49,7.49 0 0 0 6.63,-4l313.47,0a3.5,3.5 0 0 0 0,-7z" class="cls-1"/>
   <path id="svg_16" d="m745,577.91l-122.29,0a5,5 0 0 1 0,-10l122.29,0c85,0 154.13,-69.14 154.13,-154.13s-69.13,-154.13 -154.13,-154.13c-5,0 -10,0.25 -15,0.73a5,5 0 0 1 -5.37,-3.89c-21.13,-95.05 -107.24,-164 -204.75,-164a209.41,209.41 0 0 0 -208.49,186.26a5,5 0 0 1 -6.61,4.18a106.63,106.63 0 0 0 -137.1,130.65a5,5 0 0 1 -4.78,6.4a74,74 0 0 0 0.33,147.93l235.61,0a5,5 0 1 1 0,10l-235.61,0a84,84 0 0 1 -6.76,-167.66a116.63,116.63 0 0 1 145.73,-138.63a219.8,219.8 0 0 1 431.16,-21.56c3.9,-0.27 7.79,-0.41 11.64,-0.41c90.5,0 164.13,73.63 164.13,164.13s-73.63,164.13 -164.13,164.13z" class="cls-2"/>
   <path id="svg_17" d="m581.55,577.91l-141.55,0a5,5 0 1 1 0,-10l141.55,0a5,5 0 0 1 0,10z" class="cls-2"/>
  </g>
 </g>
</svg>