<?xml version="1.0" encoding="UTF-8" standalone="no"?>
<!DOCTYPE svg PUBLIC "-//W3C//DTD SVG 1.1//EN" "http://www.w3.org/Graphics/SVG/1.1/DTD/svg11.dtd">
<svg version="1.1" xmlns="http://www.w3.org/2000/svg" xmlns:xlink="http://www.w3.org/1999/xlink" preserveAspectRatio="xMidYMid meet" viewBox="0 0 1000 630" width="1000" height="630"><defs><path d="M397.42 556.58L249.94 556.58L249.94 242.26L397.42 242.26L397.42 556.58ZM311.23 280.71L285.68 280.71L285.68 314.26L311.23 314.26L311.23 280.71ZM365.94 280.71L340.39 280.71L340.39 314.26L365.94 314.26L365.94 280.71ZM311.23 332.19L285.68 332.19L285.68 365.74L311.23 365.74L311.23 332.19ZM365.94 332.19L340.39 332.19L340.39 365.74L365.94 365.74L365.94 332.19ZM311.23 383.68L285.68 383.68L285.68 417.23L311.23 417.23L311.23 383.68ZM365.94 383.68L340.39 383.68L340.39 417.23L365.94 417.23L365.94 383.68ZM311.23 435.16L285.68 435.16L285.68 468.71L311.23 468.71L311.23 435.16ZM365.94 435.16L340.39 435.16L340.39 468.71L365.94 468.71L365.94 435.16ZM311.23 486.65L285.68 486.65L285.68 520.19L311.23 520.19L311.23 486.65ZM365.94 486.65L340.39 486.65L340.39 520.19L365.94 520.19L365.94 486.65Z" id="ixnPI4ysb"></path><path d="M42.84 323.18C40.91 323.18 39.34 321.61 39.34 319.68C39.34 317.75 40.91 316.18 42.84 316.18C48.96 316.18 97.88 316.18 104 316.18C105.93 316.18 107.5 317.75 107.5 319.68C107.5 321.61 105.93 323.18 104 323.18C91.77 323.18 48.96 323.18 42.84 323.18Z" id="c88YQ4aLy"></path><path d="M85.42 300.58C83.49 300.58 81.92 299.01 81.92 297.08C81.92 295.15 83.49 293.58 85.42 293.58C88.44 293.58 112.59 293.58 115.61 293.58C117.54 293.58 119.11 295.15 119.11 297.08C119.11 299.01 117.54 300.58 115.61 300.58C109.57 300.58 88.44 300.58 85.42 300.58Z" id="hcs03nc2j"></path><path d="M138.06 300.58C136.13 300.58 134.56 299.01 134.56 297.08C134.56 295.15 136.13 293.58 138.06 293.58C149.25 293.58 238.75 293.58 249.94 293.58C251.87 293.58 253.44 295.15 253.44 297.08C253.44 299.01 251.87 300.58 249.94 300.58C227.56 300.58 149.25 300.58 138.06 300.58Z" id="b1o5rkPBgM"></path><path d="M670.71 214.31C668.78 214.31 667.21 212.74 667.21 210.81C667.21 208.88 668.78 207.31 670.71 207.31C681.39 207.31 766.87 207.31 777.55 207.31C779.48 207.31 781.05 208.88 781.05 210.81C781.05 212.74 779.48 214.31 777.55 214.31C756.18 214.31 681.39 214.31 670.71 214.31Z" id="aKld0w18R"></path><path d="M750.45 191.56C748.52 191.56 746.95 189.99 746.95 188.06C746.95 186.13 748.52 184.56 750.45 184.56C756.57 184.56 805.49 184.56 811.61 184.56C813.54 184.56 815.11 186.13 815.11 188.06C815.11 189.99 813.54 191.56 811.61 191.56C799.38 191.56 756.57 191.56 750.45 191.56Z" id="a4eD6U7Y7e"></path><path d="M670.71 449.57C670.71 449.57 670.71 449.57 670.71 449.57C670.71 498.91 670.71 526.32 670.71 531.8C670.71 531.8 670.71 531.8 670.71 531.8C651.2 531.8 640.36 531.8 638.19 531.8C638.19 531.8 638.19 531.8 638.19 531.8C638.19 482.46 638.19 455.05 638.19 449.57C638.19 449.57 638.19 449.57 638.19 449.57C657.7 449.57 668.54 449.57 670.71 449.57Z" id="b43GxGckvr"></path><path d="M805.04 449.57C805.04 449.57 805.04 449.57 805.04 449.57C805.04 498.91 805.04 526.32 805.04 531.8C805.04 531.8 805.04 531.8 805.04 531.8C785.53 531.8 774.69 531.8 772.52 531.8C772.52 531.8 772.52 531.8 772.52 531.8C772.52 482.46 772.52 455.05 772.52 449.57C772.52 449.57 772.52 449.57 772.52 449.57C792.03 449.57 802.87 449.57 805.04 449.57Z" id="eB7KzPwC5"></path><path d="M215.63 168.96C212.92 155.16 221.92 141.77 235.72 139.06C249.3 136.4 262.53 145.07 265.5 158.59C265.85 160.49 264.58 162.31 262.68 162.66C260.85 162.99 259.08 161.83 258.65 160.02C256.39 150.07 246.49 143.84 236.54 146.1C226.86 148.31 220.65 157.78 222.49 167.54C222.89 169.43 221.68 171.28 219.8 171.67C219.55 171.73 219.31 171.75 219.06 171.75C217.4 171.75 215.97 170.59 215.63 168.96Z" id="a3XmpeXh7"></path><path d="M258.45 159.07C256.18 147.03 264.1 135.43 276.14 133.17C287.87 130.96 299.25 138.43 301.88 150.07C302.27 151.96 301.05 153.82 299.16 154.21C297.27 154.6 295.41 153.38 295.02 151.49C293.31 143.29 285.28 138.02 277.07 139.73C268.87 141.43 263.6 149.47 265.31 157.67C265.69 159.59 264.43 161.45 262.52 161.82C262.31 161.87 262.09 161.89 261.88 161.89C260.22 161.86 258.79 160.69 258.45 159.07Z" id="b123xTYnbn"></path><path d="M778.04 309.54C776.15 309.13 774.96 307.26 775.37 305.37C775.37 305.37 775.37 305.37 775.37 305.37C777.53 295.4 771.21 285.56 761.24 283.4C751.27 281.24 741.43 287.56 739.27 297.53C738.86 299.42 736.99 300.62 735.1 300.21C733.22 299.79 732.02 297.93 732.43 296.04C735.42 282.29 748.98 273.57 762.73 276.56C776.48 279.55 785.2 293.11 782.21 306.86C781.86 308.47 780.44 309.62 778.79 309.62C778.54 309.62 778.29 309.59 778.04 309.54Z" id="a1B5XgCbb7"></path><path d="M814.75 316.52C812.86 316.11 811.66 314.25 812.07 312.36C814.02 304.21 809 296.01 800.85 294.06C792.69 292.11 784.5 297.13 782.55 305.28C782.5 305.49 782.45 305.7 782.41 305.91C782.04 307.81 780.21 309.05 778.31 308.68C776.41 308.32 775.17 306.48 775.54 304.58C775.55 304.53 775.56 304.48 775.57 304.43C778.17 292.46 789.98 284.87 801.95 287.46C813.91 290.06 821.51 301.87 818.91 313.84C818.57 315.45 817.15 316.6 815.5 316.6C815.25 316.6 815 316.57 814.75 316.52Z" id="ab37QjdqP"></path><path d="M177.1 500.71C162.81 500.71 151.23 512.29 151.23 526.58C151.23 540.87 162.81 552.45 177.1 552.45C191.39 552.45 202.97 540.87 202.97 526.58C202.97 512.29 191.39 500.71 177.1 500.71Z" id="eKX2y6cUO"></path><path d="M920.32 500.71C906.03 500.71 894.45 512.29 894.45 526.58C894.45 540.87 906.03 552.45 920.32 552.45C934.61 552.45 946.19 540.87 946.19 526.58C946.19 512.29 934.61 500.71 920.32 500.71Z" id="acozplKhW"></path><path d="M923.82 575.4L923.82 552.45L916.82 552.45L916.82 575.4L858.42 575.4L858.42 399.77C861.46 399.77 863.14 399.77 863.48 399.77C866.24 399.77 868.48 397.53 868.48 394.77C868.48 392.84 868.48 377.36 868.48 375.42C868.48 372.66 866.24 370.42 863.48 370.42C844.9 370.42 752 370.42 584.77 370.42L584.77 140.06L527.5 140.06C527.5 127.52 527.5 120.55 527.5 119.16C527.5 117.23 525.93 115.66 524 115.66C522.04 115.66 512.24 115.66 494.6 115.66C494.6 68.52 494.6 42.34 494.6 37.1C494.6 35.17 493.03 33.6 491.1 33.6C489.17 33.6 487.6 35.17 487.6 37.1C487.6 42.34 487.6 68.52 487.6 115.66C469.95 115.66 460.15 115.66 458.19 115.66C456.26 115.66 454.69 117.23 454.69 119.16C454.69 120.55 454.69 127.52 454.69 140.06L397.42 140.06L397.42 237.26C308.93 237.26 259.77 237.26 249.94 237.26C247.18 237.26 244.94 239.5 244.94 242.26C244.94 262.88 244.94 365.99 244.94 551.58C231.21 551.58 223.59 551.58 222.06 551.58C219.3 551.58 217.06 553.82 217.06 556.58C217.06 557.83 217.06 564.11 217.06 575.4L180.6 575.4L180.6 552.45L173.6 552.45L173.6 575.4C135.55 575.4 114.42 575.4 110.19 575.4C106.05 575.4 102.69 578.76 102.69 582.9C102.69 587.04 106.05 590.4 110.19 590.4C194.89 590.4 872.49 590.4 957.19 590.4C961.33 590.4 964.69 587.04 964.69 582.9C964.69 578.76 961.33 575.4 957.19 575.4C957.19 575.4 946.06 575.4 923.82 575.4ZM461.69 122.66L520.5 122.66L520.5 136.56L461.69 136.56L461.69 122.66ZM848.42 575.4L727.63 575.4L727.63 399.77L848.42 399.77L848.42 575.4ZM584.77 380.4L858.48 380.4L858.48 389.75L584.77 389.75L584.77 380.4ZM720.63 399.75L720.63 575.4L584.77 575.4L584.77 399.77L720.63 399.75ZM541.11 198.92L541.11 207.31L441.66 207.31L441.66 198.92L541.11 198.92ZM541.11 503.92L541.11 512.31L441.66 512.31L441.66 503.9L541.11 503.92ZM541.11 453.09L541.11 461.48L441.66 461.48L441.66 453.09L541.11 453.09ZM541.11 402.26L541.11 410.65L441.66 410.65L441.66 402.26L541.11 402.26ZM541.11 351.43L541.11 359.82L441.66 359.82L441.66 351.43L541.11 351.43ZM541.11 300.6L541.11 309L441.66 309L441.66 300.61L541.11 300.6ZM441.66 258.16L441.66 249.77L541.11 249.77L541.11 258.16L441.66 258.16ZM254.94 247.26L392.42 247.26L392.42 551.58L254.94 551.58L254.94 247.26ZM227.06 561.58L420.29 561.58L420.29 575.4L227.06 575.4L227.06 561.58Z" id="bTq5lwMH1"></path><path d="M670.71 535.31C672.64 535.31 674.21 533.74 674.21 531.81C674.21 523.59 674.21 457.79 674.21 449.57C674.21 447.64 672.64 446.07 670.71 446.07C667.46 446.07 641.44 446.07 638.19 446.07C636.26 446.07 634.69 447.64 634.69 449.57C634.69 457.79 634.69 523.59 634.69 531.81C634.69 533.74 636.26 535.31 638.19 535.31C644.69 535.31 667.46 535.31 670.71 535.31ZM641.69 453.07L667.21 453.07L667.21 528.31L641.69 528.31L641.69 453.07Z" id="gjimfAHMo"></path><path d="M805 535.31C806.93 535.31 808.5 533.74 808.5 531.81C808.5 523.59 808.5 457.79 808.5 449.57C808.5 447.64 806.93 446.07 805 446.07C801.75 446.07 775.77 446.07 772.52 446.07C770.59 446.07 769.02 447.64 769.02 449.57C769.02 457.79 769.02 523.59 769.02 531.81C769.02 533.74 770.59 535.31 772.52 535.31C779.02 535.31 801.75 535.31 805 535.31ZM776.02 453.07L801.53 453.07L801.53 528.31L776 528.31L776.02 453.07Z" id="cHOGWtLmL"></path><path d="M285.68 277.21C283.75 277.21 282.18 278.78 282.18 280.71C282.18 284.07 282.18 310.9 282.18 314.26C282.18 316.19 283.75 317.76 285.68 317.76C288.24 317.76 308.68 317.76 311.23 317.76C313.16 317.76 314.73 316.19 314.73 314.26C314.73 310.9 314.73 284.07 314.73 280.71C314.73 278.78 313.16 277.21 311.23 277.21C306.12 277.21 288.24 277.21 285.68 277.21ZM307.73 310.76L289.18 310.76L289.18 284.21L307.73 284.21L307.73 310.76Z" id="c1MSIPMjY3"></path><path d="M340.39 277.21C338.46 277.21 336.89 278.78 336.89 280.71C336.89 284.07 336.89 310.9 336.89 314.26C336.89 316.19 338.46 317.76 340.39 317.76C342.95 317.76 363.39 317.76 365.94 317.76C367.87 317.76 369.44 316.19 369.44 314.26C369.44 310.9 369.44 284.07 369.44 280.71C369.44 278.78 367.87 277.21 365.94 277.21C360.83 277.21 342.95 277.21 340.39 277.21ZM362.44 310.76L343.89 310.76L343.89 284.21L362.44 284.21L362.44 310.76Z" id="g1jLFAoNl7"></path><path d="M285.68 328.69C283.75 328.69 282.18 330.26 282.18 332.19C282.18 335.55 282.18 362.39 282.18 365.74C282.18 367.67 283.75 369.24 285.68 369.24C288.24 369.24 308.68 369.24 311.23 369.24C313.16 369.24 314.73 367.67 314.73 365.74C314.73 362.39 314.73 335.55 314.73 332.19C314.73 330.26 313.16 328.69 311.23 328.69C306.12 328.69 288.24 328.69 285.68 328.69ZM307.73 362.24L289.18 362.24L289.18 335.69L307.73 335.69L307.73 362.24Z" id="ahYh8GZkO"></path><path d="M340.39 328.69C338.46 328.69 336.89 330.26 336.89 332.19C336.89 335.55 336.89 362.39 336.89 365.74C336.89 367.67 338.46 369.24 340.39 369.24C342.95 369.24 363.39 369.24 365.94 369.24C367.87 369.24 369.44 367.67 369.44 365.74C369.44 362.39 369.44 335.55 369.44 332.19C369.44 330.26 367.87 328.69 365.94 328.69C360.83 328.69 342.95 328.69 340.39 328.69ZM362.44 362.24L343.89 362.24L343.89 335.69L362.44 335.69L362.44 362.24Z" id="kOi25qChs"></path><path d="M285.68 380.18C283.75 380.18 282.18 381.75 282.18 383.68C282.18 387.04 282.18 413.87 282.18 417.23C282.18 419.16 283.75 420.73 285.68 420.73C288.24 420.73 308.68 420.73 311.23 420.73C313.16 420.73 314.73 419.16 314.73 417.23C314.73 413.87 314.73 387.04 314.73 383.68C314.73 381.75 313.16 380.18 311.23 380.18C306.12 380.18 288.24 380.18 285.68 380.18ZM307.73 413.73L289.18 413.73L289.18 387.18L307.73 387.18L307.73 413.73Z" id="a26SrK4nFd"></path><path d="M340.39 380.18C338.46 380.17 336.9 381.73 336.89 383.66C336.89 383.67 336.89 383.67 336.89 383.68C336.89 387.04 336.89 413.87 336.89 417.23C336.89 419.16 338.46 420.73 340.39 420.73C342.95 420.73 363.39 420.73 365.94 420.73C367.87 420.73 369.44 419.16 369.44 417.23C369.44 413.87 369.44 387.04 369.44 383.68C369.44 381.75 367.87 380.18 365.94 380.18C360.83 380.18 342.95 380.18 340.39 380.18ZM362.44 413.73L343.89 413.73L343.89 387.18L362.44 387.18L362.44 413.73Z" id="bkjizepHA"></path><path d="M285.68 431.66C283.75 431.66 282.18 433.23 282.18 435.16C282.18 438.52 282.18 465.35 282.18 468.71C282.18 470.64 283.75 472.21 285.68 472.21C288.24 472.21 308.68 472.21 311.23 472.21C313.16 472.21 314.73 470.64 314.73 468.71C314.73 465.35 314.73 438.52 314.73 435.16C314.73 433.23 313.16 431.66 311.23 431.66C306.12 431.66 288.24 431.66 285.68 431.66ZM307.73 465.21L289.18 465.21L289.18 438.66L307.73 438.66L307.73 465.21Z" id="e2TeFqsRjT"></path><path d="M340.39 431.66C338.46 431.66 336.89 433.23 336.89 435.16C336.89 438.52 336.89 465.35 336.89 468.71C336.89 470.64 338.46 472.21 340.39 472.21C342.95 472.21 363.39 472.21 365.94 472.21C367.87 472.21 369.44 470.64 369.44 468.71C369.44 465.35 369.44 438.52 369.44 435.16C369.44 433.23 367.87 431.66 365.94 431.66C360.83 431.66 342.95 431.66 340.39 431.66ZM362.44 465.21L343.89 465.21L343.89 438.66L362.44 438.66L362.44 465.21Z" id="a51R19oLZ4"></path><path d="M285.68 483.15C283.75 483.15 282.18 484.72 282.18 486.65C282.18 490 282.18 516.84 282.18 520.19C282.18 522.12 283.75 523.69 285.68 523.69C288.24 523.69 308.68 523.69 311.23 523.69C313.16 523.69 314.73 522.12 314.73 520.19C314.73 516.84 314.73 490 314.73 486.65C314.73 484.72 313.16 483.15 311.23 483.15C306.12 483.15 288.24 483.15 285.68 483.15ZM307.73 516.69L289.18 516.69L289.18 490.15L307.73 490.15L307.73 516.69Z" id="bM27xAfn2"></path><path d="M340.39 483.15C338.46 483.14 336.9 484.7 336.89 486.63C336.89 486.64 336.89 486.64 336.89 486.65C336.89 490 336.89 516.84 336.89 520.19C336.88 522.12 338.44 523.68 340.37 523.69C340.38 523.69 340.38 523.69 340.39 523.69C342.95 523.69 363.39 523.69 365.94 523.69C367.87 523.69 369.44 522.12 369.44 520.19C369.44 516.84 369.44 490 369.44 486.65C369.44 484.72 367.87 483.15 365.94 483.15C360.83 483.15 342.95 483.15 340.39 483.15ZM362.44 516.69L343.89 516.69L343.89 490.15L362.44 490.15L362.44 516.69Z" id="b21invvt0"></path></defs><g><g><g><use xlink:href="#ixnPI4ysb" opacity="1" fill="#9fcde0" fill-opacity="1"></use><g><use xlink:href="#ixnPI4ysb" opacity="1" fill-opacity="0" stroke="#000000" stroke-width="1" stroke-opacity="0"></use></g></g><g><use xlink:href="#c88YQ4aLy" opacity="1" fill="#9fcde0" fill-opacity="1"></use><g><use xlink:href="#c88YQ4aLy" opacity="1" fill-opacity="0" stroke="#000000" stroke-width="1" stroke-opacity="0"></use></g></g><g><use xlink:href="#hcs03nc2j" opacity="1" fill="#9fcde0" fill-opacity="1"></use><g><use xlink:href="#hcs03nc2j" opacity="1" fill-opacity="0" stroke="#000000" stroke-width="1" stroke-opacity="0"></use></g></g><g><use xlink:href="#b1o5rkPBgM" opacity="1" fill="#9fcde0" fill-opacity="1"></use><g><use xlink:href="#b1o5rkPBgM" opacity="1" fill-opacity="0" stroke="#000000" stroke-width="1" stroke-opacity="0"></use></g></g><g><use xlink:href="#aKld0w18R" opacity="1" fill="#9fcde0" fill-opacity="1"></use><g><use xlink:href="#aKld0w18R" opacity="1" fill-opacity="0" stroke="#000000" stroke-width="1" stroke-opacity="0"></use></g></g><g><use xlink:href="#a4eD6U7Y7e" opacity="1" fill="#9fcde0" fill-opacity="1"></use><g><use xlink:href="#a4eD6U7Y7e" opacity="1" fill-opacity="0" stroke="#000000" stroke-width="1" stroke-opacity="0"></use></g></g><g><use xlink:href="#b43GxGckvr" opacity="1" fill="#9fcde0" fill-opacity="1"></use><g><use xlink:href="#b43GxGckvr" opacity="1" fill-opacity="0" stroke="#000000" stroke-width="1" stroke-opacity="0"></use></g></g><g><use xlink:href="#eB7KzPwC5" opacity="1" fill="#9fcde0" fill-opacity="1"></use><g><use xlink:href="#eB7KzPwC5" opacity="1" fill-opacity="0" stroke="#000000" stroke-width="1" stroke-opacity="0"></use></g></g><g><use xlink:href="#a3XmpeXh7" opacity="1" fill="#9fcde0" fill-opacity="1"></use><g><use xlink:href="#a3XmpeXh7" opacity="1" fill-opacity="0" stroke="#000000" stroke-width="1" stroke-opacity="0"></use></g></g><g><use xlink:href="#b123xTYnbn" opacity="1" fill="#9fcde0" fill-opacity="1"></use><g><use xlink:href="#b123xTYnbn" opacity="1" fill-opacity="0" stroke="#000000" stroke-width="1" stroke-opacity="0"></use></g></g><g><use xlink:href="#a1B5XgCbb7" opacity="1" fill="#9fcde0" fill-opacity="1"></use><g><use xlink:href="#a1B5XgCbb7" opacity="1" fill-opacity="0" stroke="#000000" stroke-width="1" stroke-opacity="0"></use></g></g><g><use xlink:href="#ab37QjdqP" opacity="1" fill="#9fcde0" fill-opacity="1"></use><g><use xlink:href="#ab37QjdqP" opacity="1" fill-opacity="0" stroke="#000000" stroke-width="1" stroke-opacity="0"></use></g></g><g><use xlink:href="#eKX2y6cUO" opacity="1" fill="#66cb92" fill-opacity="1"></use><g><use xlink:href="#eKX2y6cUO" opacity="1" fill-opacity="0" stroke="#000000" stroke-width="1" stroke-opacity="0"></use></g></g><g><use xlink:href="#acozplKhW" opacity="1" fill="#66cb92" fill-opacity="1"></use><g><use xlink:href="#acozplKhW" opacity="1" fill-opacity="0" stroke="#000000" stroke-width="1" stroke-opacity="0"></use></g></g><g><use xlink:href="#bTq5lwMH1" opacity="1" fill="#0070ba" fill-opacity="1"></use><g><use xlink:href="#bTq5lwMH1" opacity="1" fill-opacity="0" stroke="#000000" stroke-width="1" stroke-opacity="0"></use></g></g><g><use xlink:href="#gjimfAHMo" opacity="1" fill="#0070ba" fill-opacity="1"></use><g><use xlink:href="#gjimfAHMo" opacity="1" fill-opacity="0" stroke="#000000" stroke-width="1" stroke-opacity="0"></use></g></g><g><use xlink:href="#cHOGWtLmL" opacity="1" fill="#0070ba" fill-opacity="1"></use><g><use xlink:href="#cHOGWtLmL" opacity="1" fill-opacity="0" stroke="#000000" stroke-width="1" stroke-opacity="0"></use></g></g><g><use xlink:href="#c1MSIPMjY3" opacity="1" fill="#0070ba" fill-opacity="1"></use><g><use xlink:href="#c1MSIPMjY3" opacity="1" fill-opacity="0" stroke="#000000" stroke-width="1" stroke-opacity="0"></use></g></g><g><use xlink:href="#g1jLFAoNl7" opacity="1" fill="#0070ba" fill-opacity="1"></use><g><use xlink:href="#g1jLFAoNl7" opacity="1" fill-opacity="0" stroke="#000000" stroke-width="1" stroke-opacity="0"></use></g></g><g><use xlink:href="#ahYh8GZkO" opacity="1" fill="#0070ba" fill-opacity="1"></use><g><use xlink:href="#ahYh8GZkO" opacity="1" fill-opacity="0" stroke="#000000" stroke-width="1" stroke-opacity="0"></use></g></g><g><use xlink:href="#kOi25qChs" opacity="1" fill="#0070ba" fill-opacity="1"></use><g><use xlink:href="#kOi25qChs" opacity="1" fill-opacity="0" stroke="#000000" stroke-width="1" stroke-opacity="0"></use></g></g><g><use xlink:href="#a26SrK4nFd" opacity="1" fill="#0070ba" fill-opacity="1"></use><g><use xlink:href="#a26SrK4nFd" opacity="1" fill-opacity="0" stroke="#000000" stroke-width="1" stroke-opacity="0"></use></g></g><g><use xlink:href="#bkjizepHA" opacity="1" fill="#0070ba" fill-opacity="1"></use><g><use xlink:href="#bkjizepHA" opacity="1" fill-opacity="0" stroke="#000000" stroke-width="1" stroke-opacity="0"></use></g></g><g><use xlink:href="#e2TeFqsRjT" opacity="1" fill="#0070ba" fill-opacity="1"></use><g><use xlink:href="#e2TeFqsRjT" opacity="1" fill-opacity="0" stroke="#000000" stroke-width="1" stroke-opacity="0"></use></g></g><g><use xlink:href="#a51R19oLZ4" opacity="1" fill="#0070ba" fill-opacity="1"></use><g><use xlink:href="#a51R19oLZ4" opacity="1" fill-opacity="0" stroke="#000000" stroke-width="1" stroke-opacity="0"></use></g></g><g><use xlink:href="#bM27xAfn2" opacity="1" fill="#0070ba" fill-opacity="1"></use><g><use xlink:href="#bM27xAfn2" opacity="1" fill-opacity="0" stroke="#000000" stroke-width="1" stroke-opacity="0"></use></g></g><g><use xlink:href="#b21invvt0" opacity="1" fill="#0070ba" fill-opacity="1"></use><g><use xlink:href="#b21invvt0" opacity="1" fill-opacity="0" stroke="#000000" stroke-width="1" stroke-opacity="0"></use></g></g></g></g></svg>