<svg xmlns="http://www.w3.org/2000/svg" viewBox="0 0 1000 1000"><defs><style>.cls-1{fill:#0070ba;}.cls-2{fill:#66cb92;}</style></defs><g id="Grafik"><path class="cls-1" d="M408.55,202.4H723a5,5,0,0,0,0-10H408.55a5,5,0,0,0,0,10Z"/><path class="cls-1" d="M408.55,241.47H723a5,5,0,0,0,0-10H408.55a5,5,0,0,0,0,10Z"/><path class="cls-1" d="M723,270.53H408.55a5,5,0,1,0,0,10H723a5,5,0,0,0,0-10Z"/><path class="cls-1" d="M178.5,27.5a55.06,55.06,0,0,0-55,55v835a55.06,55.06,0,0,0,55,55h698V27.5Zm688,935H261.38V37.5H866.5Z"/><path class="cls-2" d="M780.89,428.86a612.76,612.76,0,0,0-430.21,0h0c0,339.26,215.1,446.87,215.1,446.87S780.89,768.13,780.89,428.86Zm-144,158.37H611.07V701.72a5,5,0,0,1-5,5H525.5a5,5,0,0,1-5-5V587.23H494.69a5,5,0,0,1-4.09-7.89l71.1-100.5a5,5,0,0,1,8.17,0L641,579.34A5,5,0,0,1,636.88,587.23Z"/></g></svg>