<?xml version="1.0" encoding="UTF-8" standalone="no"?>
<svg
   xmlns:dc="http://purl.org/dc/elements/1.1/"
   xmlns:cc="http://creativecommons.org/ns#"
   xmlns:rdf="http://www.w3.org/1999/02/22-rdf-syntax-ns#"
   xmlns:svg="http://www.w3.org/2000/svg"
   xmlns="http://www.w3.org/2000/svg"
   xmlns:xlink="http://www.w3.org/1999/xlink"
   xmlns:sodipodi="http://sodipodi.sourceforge.net/DTD/sodipodi-0.dtd"
   xmlns:inkscape="http://www.inkscape.org/namespaces/inkscape"
   xml:space="preserve"
   enable-background="new 0 0 1000 1000"
   viewBox="0 0 1000 1000"
   height="1000px"
   width="1000px"
   y="0px"
   x="0px"
   id="Ebene_1"
   version="1.1"
   sodipodi:docname="release-notes.svg"
   inkscape:version="0.92.3 (2405546, 2018-03-11)"><sodipodi:namedview
   pagecolor="#ffffff"
   bordercolor="#666666"
   borderopacity="1"
   objecttolerance="10"
   gridtolerance="10"
   guidetolerance="10"
   inkscape:pageopacity="0"
   inkscape:pageshadow="2"
   inkscape:window-width="640"
   inkscape:window-height="480"
   id="namedview34"
   showgrid="false"
   inkscape:zoom="0.6675088"
   inkscape:cx="574.68504"
   inkscape:cy="98.429667"
   inkscape:current-layer="Ebene_1" /><metadata
   id="metadata59"><rdf:RDF><cc:Work
       rdf:about=""><dc:format>image/svg+xml</dc:format><dc:type
         rdf:resource="http://purl.org/dc/dcmitype/StillImage" /><dc:title /></cc:Work></rdf:RDF></metadata><defs
   id="defs57">
	
	
	
	
		
	
	
	
<clipPath
   id="clipPath884"
   clipPathUnits="userSpaceOnUse"><use
     height="100%"
     width="100%"
     id="use886"
     xlink:href="#g880"
     y="0"
     x="0" /></clipPath></defs>
<g
   id="g36"
   display="none">
	<path
   id="path2"
   d="M60.7,765.4c0,27.8,22.6,50.3,50.3,50.3h778c27.8,0,50.3-22.6,50.3-50.3V279.9H60.7V765.4   z M420.9,381.2h313.5c5.4,0,9.8,4.4,9.8,9.8c0,5.4-4.4,9.8-9.8,9.8H420.9c-5.4,0-9.8-4.4-9.8-9.8   C411.1,385.6,415.5,381.2,420.9,381.2z M420.7,424.4h177.9c5.4,0,9.8,4.4,9.8,9.8c0.1,5.5-4.3,9.8-9.7,9.8h-178   c-5.4,0-9.8-4.4-9.8-9.8C410.9,428.8,415.3,424.4,420.7,424.4z M420,513.8h313.5c5.4,0,9.8,4.4,9.8,9.8c0.1,5.5-4.3,9.8-9.7,9.8   H420c-5.4,0-9.8-4.4-9.8-9.8S414.6,513.8,420,513.8z M420,557.2h177.9c5.4,0,9.8,4.4,9.8,9.8c0.1,5.4-4.3,9.8-9.7,9.8H420   c-5.4,0-9.8-4.4-9.8-9.8S414.6,557.2,420,557.2z M420,651.9h313.5c5.4,0,9.8,4.4,9.8,9.8c0.1,5.4-4.3,9.8-9.7,9.8H420   c-5.4,0-9.8-4.4-9.8-9.8S414.6,651.9,420,651.9z M420,695.1h177.9c5.4,0,9.8,4.4,9.8,9.8c0.1,5.5-4.3,9.8-9.7,9.8H420   c-5.4,0-9.8-4.4-9.8-9.8S414.6,695.1,420,695.1z M348.2,383.5l-48,48l-21.6-21.6l6.8-6.8l14.7,14.9l41.3-41.3L348.2,383.5z    M305.2,364.4c6.3,0,12.5,1.4,18.2,3.3l-7.6,7.6c-3.4-1-6.8-1.5-10.6-1.5c-21.1,0-38.3,17.3-38.3,38.3c0,21.1,17.3,38.3,38.3,38.3   c21.1,0,38.3-17.3,38.3-38.3v0.1h9.6c0,26.4-21.6,48-48,48c-26.4,0-48-21.6-48-48C257.2,386,278.8,364.4,305.2,364.4z M347.4,516.3   l-48,48l-21.6-21.6l6.8-6.8l14.7,14.9l41.3-41.3L347.4,516.3z M304.4,497.2c6.3,0,12.5,1.4,18.2,3.3l-7.6,7.6   c-3.4-1-6.8-1.5-10.6-1.5c-21.1,0-38.3,17.3-38.3,38.3c0,21.1,17.3,38.3,38.3,38.3c21.1,0,38.3-17.3,38.3-38.3v0.1h9.6   c0,26.4-21.6,48-48,48c-26.4,0-48-21.6-48-48S278,497.2,304.4,497.2z M347.4,654.2l-48,48l-21.6-21.6l6.8-6.8l14.7,14.9l41.3-41.3   L347.4,654.2z M304.4,635.1c6.3,0,12.5,1.4,18.2,3.3l-7.6,7.6c-3.4-1-6.8-1.5-10.6-1.5c-21.1,0-38.3,17.3-38.3,38.3   s17.3,38.3,38.3,38.3c21.1,0,38.3-17.3,38.3-38.3v0.1h9.6c0,26.4-21.6,48-48,48c-26.4,0-48-21.6-48-48S278,635.1,304.4,635.1z"
   fill="#FFFFFF"
   display="inline" />
	<path
   id="path4"
   d="M889,173.5H111c-33.6,0-61.1,27.5-61.1,61.1v530.9c0,33.6,27.5,61.1,61.1,61.1h778   c33.6,0,61.1-27.5,61.1-61.1V234.6C950.1,200.9,922.7,173.5,889,173.5z M939.3,765.4c0,27.8-22.6,50.3-50.3,50.3H111   c-27.8,0-50.3-22.6-50.3-50.3V279.9h878.6V765.4z M859.9,226.4c0,8.1-6.6,14.7-14.7,14.7s-14.7-6.6-14.7-14.7   c0-8.1,6.6-14.7,14.7-14.7S859.9,218.3,859.9,226.4z M816.7,226.4c0,8.1-6.6,14.7-14.7,14.7s-14.7-6.6-14.7-14.7   c0-8.1,6.6-14.7,14.7-14.7S816.7,218.3,816.7,226.4z M888.3,211.7c8.1,0,14.7,6.6,14.7,14.7c0,8.1-6.6,14.7-14.7,14.7   s-14.7-6.6-14.7-14.7C873.6,218.3,880.2,211.7,888.3,211.7z"
   fill="#0070BA"
   display="inline" />
	<polygon
   id="polygon6"
   points="285.4,403.1 278.7,409.9 300.3,431.5 348.2,383.5 341.4,376.7 300.2,418  "
   fill="#66CB92"
   display="inline" />
	<path
   id="path8"
   d="M305.2,460.3c26.4,0,48-21.6,48-48h-9.6v-0.1c0,21.1-17.3,38.3-38.3,38.3   c-21.1,0-38.3-17.3-38.3-38.3c0-21.1,17.3-38.3,38.3-38.3c3.8,0,7.2,0.5,10.6,1.5l7.6-7.6c-5.8-2-12-3.3-18.2-3.3   c-26.4,0-48,21.6-48,48C257.2,438.7,278.8,460.3,305.2,460.3z"
   fill="#66CB92"
   display="inline" />
	<path
   id="path10"
   d="M420.9,400.8h313.5c5.4,0,9.8-4.4,9.8-9.8c0-5.4-4.4-9.8-9.8-9.8H420.9   c-5.4,0-9.8,4.4-9.8,9.8C411.1,396.4,415.5,400.8,420.9,400.8z"
   fill="#66CB92"
   display="inline" />
	<path
   id="path12"
   d="M420.7,444h178c5.4,0,9.8-4.3,9.7-9.8c0-5.4-4.4-9.8-9.8-9.8H420.7   c-5.4,0-9.8,4.4-9.8,9.8C410.9,439.6,415.3,444,420.7,444z"
   fill="#0070BA"
   display="inline" />
	<polygon
   id="polygon14"
   points="284.7,535.9 277.9,542.7 299.5,564.2 347.4,516.3 340.7,509.5 299.4,550.8  "
   fill="#66CB92"
   display="inline" />
	<path
   id="path16"
   d="M304.4,593.1c26.4,0,48-21.6,48-48h-9.6V545c0,21.1-17.3,38.3-38.3,38.3   c-21.1,0-38.3-17.3-38.3-38.3c0-21.1,17.3-38.3,38.3-38.3c3.8,0,7.2,0.5,10.6,1.5l7.6-7.6c-5.8-2-12-3.3-18.2-3.3   c-26.4,0-48,21.6-48,48S278,593.1,304.4,593.1z"
   fill="#66CB92"
   display="inline" />
	<path
   id="path18"
   d="M420,533.4h313.6c5.4,0,9.8-4.3,9.7-9.8c0-5.4-4.4-9.8-9.8-9.8H420   c-5.4,0-9.8,4.4-9.8,9.8S414.6,533.4,420,533.4z"
   fill="#66CB92"
   display="inline" />
	<path
   id="path20"
   d="M420,576.8h178c5.4,0,9.8-4.4,9.7-9.8c0-5.4-4.4-9.8-9.8-9.8H420c-5.4,0-9.8,4.4-9.8,9.8   S414.6,576.8,420,576.8z"
   fill="#0070BA"
   display="inline" />
	<path
   id="path22"
   d="M304.4,731c26.4,0,48-21.6,48-48h-9.6V683c0,21.1-17.3,38.3-38.3,38.3   c-21.1,0-38.3-17.3-38.3-38.3s17.3-38.3,38.3-38.3c3.8,0,7.2,0.5,10.6,1.5l7.6-7.6c-5.8-2-12-3.3-18.2-3.3c-26.4,0-48,21.6-48,48   S278,731,304.4,731z"
   fill="#66CB92"
   display="inline" />
	<polygon
   id="polygon24"
   points="284.7,673.9 277.9,680.6 299.5,702.2 347.4,654.2 340.7,647.5 299.4,688.8  "
   fill="#66CB92"
   display="inline" />
	<path
   id="path26"
   d="M420,671.5h313.6c5.4,0,9.8-4.4,9.7-9.8c0-5.4-4.4-9.8-9.8-9.8H420   c-5.4,0-9.8,4.4-9.8,9.8S414.6,671.5,420,671.5z"
   fill="#66CB92"
   display="inline" />
	<path
   id="path28"
   d="M420,714.8h178c5.4,0,9.8-4.3,9.7-9.8c0-5.4-4.4-9.8-9.8-9.8H420c-5.4,0-9.8,4.4-9.8,9.8   S414.6,714.8,420,714.8z"
   fill="#0070BA"
   display="inline" />
	<circle
   id="circle30"
   r="14.7"
   cy="226.4"
   cx="802"
   fill="#FFFFFF"
   display="inline" />
	<circle
   id="circle32"
   r="14.7"
   cy="226.4"
   cx="845.2"
   fill="#FFFFFF"
   display="inline" />
	<circle
   id="circle34"
   r="14.7"
   cy="226.4"
   cx="888.3"
   fill="#FFFFFF"
   display="inline" />
</g>
<path
   d="M 623.1,752.1 H 706 c 48.7,0 91.6,24.9 116.7,62.6 V 124.2 H 304 v 751.5 h 180 c 8.1,-69.6 67.3,-123.6 139.1,-123.6 z m 135.2,-123 c -8.1,51.6 -56.5,86.8 -108.1,78.7 -51.6,-8.1 -86.8,-56.5 -78.7,-108.1 8.1,-51.6 56.5,-86.8 108.1,-78.7 51.6,8.2 86.8,56.6 78.7,108.1 z M 411.9,215.3 h 298.7 v 16.3 H 411.9 Z m 0,52.5 h 298.7 v 16.3 H 411.9 Z m 0,52.5 h 298.7 v 16.3 H 411.9 Z"
   id="path38"
   style="fill:none" /><path
   d="M 835.5,888.6 V 838.8 663.4 111.4 H 205.9 c -22.8,0 -41.4,18.6 -41.4,41.4 v 694.3 c 0,22.8 18.6,41.4 41.4,41.4 h 181.5 95.7 352.4 z M 304,875.8 V 124.2 h 518.7 v 690.4 61.1 H 484 304 Z"
   id="path42"
   style="fill:#0070ba" /><rect
   x="411.89999"
   y="320.29999"
   width="298.70001"
   height="16.299999"
   id="rect46"
   style="fill:#66cb92" /><rect
   x="411.89999"
   y="267.79999"
   width="298.70001"
   height="16.299999"
   id="rect48"
   style="fill:#0070ba" /><rect
   x="411.89999"
   y="215.3"
   width="298.70001"
   height="16.299999"
   id="rect50"
   style="fill:#66cb92" />
<g
   transform="matrix(0.7523502,0,0,0.76004031,75.28662,113.86507)"
   clip-path="url(#clipPath884)"
   id="g882"><g
     id="g880" /></g><path
   id="path2-3"
   style="fill:#66cb92;stroke-width:0.34038967;fill-opacity:1"
   d="m 590.05624,673.12941 h -32.6774 c -4.52719,0 -8.16936,-3.64217 -8.16936,-8.16936 v -68.07793 h -35.33244 c -7.28434,0 -10.92651,-8.78205 -5.78663,-13.95598 l 59.84051,-59.90858 c 3.19966,-3.19966 8.37358,-3.19966 11.57324,0 l 59.84051,59.90858 c 5.13988,5.13989 1.49771,13.95598 -5.78663,13.95598 H 598.2256 v 68.07793 c 0,4.52719 -3.64217,8.16936 -8.16936,8.16936 z m 71.15963,-186.02772 -63.57359,-25.30935 -23.92474,-9.5765 -23.92473,9.5765 -63.49836,25.30935 -41.30403,16.49287 v 12.08464 16.8729 7.6004 8.28444 2.58414 c 0,1.59608 0,3.19217 0.0752,4.71225 0.60188,34.20181 7.74921,68.25162 20.8401,98.72923 14.44512,33.66979 35.81187,62.39931 61.69272,83.07241 l 5.71786,4.56024 35.43569,28.2735 0.97806,0.76004 3.98745,3.19217 3.61128,-2.88815 1.35423,-1.06406 35.4357,-28.2735 5.71786,-4.56024 c 25.95608,-20.6731 47.24759,-49.40262 61.69272,-83.07241 13.69277,-31.92169 20.91533,-67.64359 20.91533,-103.44148 v -2.58414 -44.84238 z"
   inkscape:connector-curvature="0" /></svg>