<?xml version="1.0" encoding="utf-8"?>
<!-- Generator: Adobe Illustrator 23.0.6, SVG Export Plug-In . SVG Version: 6.00 Build 0)  -->
<svg version="1.1" id="Ebene_1" xmlns="http://www.w3.org/2000/svg" xmlns:xlink="http://www.w3.org/1999/xlink" x="0px" y="0px"
	 width="1000px" height="1000px" viewBox="0 0 1000 1000" enable-background="new 0 0 1000 1000" xml:space="preserve">
<g display="none">
	<path display="inline" fill="#FFFFFF" d="M60.7,765.4c0,27.8,22.6,50.3,50.3,50.3h778c27.8,0,50.3-22.6,50.3-50.3V279.9H60.7V765.4
		z M420.9,381.2h313.5c5.4,0,9.8,4.4,9.8,9.8c0,5.4-4.4,9.8-9.8,9.8H420.9c-5.4,0-9.8-4.4-9.8-9.8
		C411.1,385.6,415.5,381.2,420.9,381.2z M420.7,424.4h177.9c5.4,0,9.8,4.4,9.8,9.8c0.1,5.5-4.3,9.8-9.7,9.8h-178
		c-5.4,0-9.8-4.4-9.8-9.8C410.9,428.8,415.3,424.4,420.7,424.4z M420,513.8h313.5c5.4,0,9.8,4.4,9.8,9.8c0.1,5.5-4.3,9.8-9.7,9.8
		H420c-5.4,0-9.8-4.4-9.8-9.8S414.6,513.8,420,513.8z M420,557.2h177.9c5.4,0,9.8,4.4,9.8,9.8c0.1,5.4-4.3,9.8-9.7,9.8H420
		c-5.4,0-9.8-4.4-9.8-9.8S414.6,557.2,420,557.2z M420,651.9h313.5c5.4,0,9.8,4.4,9.8,9.8c0.1,5.4-4.3,9.8-9.7,9.8H420
		c-5.4,0-9.8-4.4-9.8-9.8S414.6,651.9,420,651.9z M420,695.1h177.9c5.4,0,9.8,4.4,9.8,9.8c0.1,5.5-4.3,9.8-9.7,9.8H420
		c-5.4,0-9.8-4.4-9.8-9.8S414.6,695.1,420,695.1z M348.2,383.5l-48,48l-21.6-21.6l6.8-6.8l14.7,14.9l41.3-41.3L348.2,383.5z
		 M305.2,364.4c6.3,0,12.5,1.4,18.2,3.3l-7.6,7.6c-3.4-1-6.8-1.5-10.6-1.5c-21.1,0-38.3,17.3-38.3,38.3c0,21.1,17.3,38.3,38.3,38.3
		c21.1,0,38.3-17.3,38.3-38.3v0.1h9.6c0,26.4-21.6,48-48,48c-26.4,0-48-21.6-48-48C257.2,386,278.8,364.4,305.2,364.4z M347.4,516.3
		l-48,48l-21.6-21.6l6.8-6.8l14.7,14.9l41.3-41.3L347.4,516.3z M304.4,497.2c6.3,0,12.5,1.4,18.2,3.3l-7.6,7.6
		c-3.4-1-6.8-1.5-10.6-1.5c-21.1,0-38.3,17.3-38.3,38.3c0,21.1,17.3,38.3,38.3,38.3c21.1,0,38.3-17.3,38.3-38.3v0.1h9.6
		c0,26.4-21.6,48-48,48c-26.4,0-48-21.6-48-48S278,497.2,304.4,497.2z M347.4,654.2l-48,48l-21.6-21.6l6.8-6.8l14.7,14.9l41.3-41.3
		L347.4,654.2z M304.4,635.1c6.3,0,12.5,1.4,18.2,3.3l-7.6,7.6c-3.4-1-6.8-1.5-10.6-1.5c-21.1,0-38.3,17.3-38.3,38.3
		s17.3,38.3,38.3,38.3c21.1,0,38.3-17.3,38.3-38.3v0.1h9.6c0,26.4-21.6,48-48,48c-26.4,0-48-21.6-48-48S278,635.1,304.4,635.1z"/>
	<path display="inline" fill="#0070BA" d="M889,173.5H111c-33.6,0-61.1,27.5-61.1,61.1v530.9c0,33.6,27.5,61.1,61.1,61.1h778
		c33.6,0,61.1-27.5,61.1-61.1V234.6C950.1,200.9,922.7,173.5,889,173.5z M939.3,765.4c0,27.8-22.6,50.3-50.3,50.3H111
		c-27.8,0-50.3-22.6-50.3-50.3V279.9h878.6V765.4z M859.9,226.4c0,8.1-6.6,14.7-14.7,14.7s-14.7-6.6-14.7-14.7
		c0-8.1,6.6-14.7,14.7-14.7S859.9,218.3,859.9,226.4z M816.7,226.4c0,8.1-6.6,14.7-14.7,14.7s-14.7-6.6-14.7-14.7
		c0-8.1,6.6-14.7,14.7-14.7S816.7,218.3,816.7,226.4z M888.3,211.7c8.1,0,14.7,6.6,14.7,14.7c0,8.1-6.6,14.7-14.7,14.7
		s-14.7-6.6-14.7-14.7C873.6,218.3,880.2,211.7,888.3,211.7z"/>
	<polygon display="inline" fill="#66CB92" points="285.4,403.1 278.7,409.9 300.3,431.5 348.2,383.5 341.4,376.7 300.2,418 	"/>
	<path display="inline" fill="#66CB92" d="M305.2,460.3c26.4,0,48-21.6,48-48h-9.6v-0.1c0,21.1-17.3,38.3-38.3,38.3
		c-21.1,0-38.3-17.3-38.3-38.3c0-21.1,17.3-38.3,38.3-38.3c3.8,0,7.2,0.5,10.6,1.5l7.6-7.6c-5.8-2-12-3.3-18.2-3.3
		c-26.4,0-48,21.6-48,48C257.2,438.7,278.8,460.3,305.2,460.3z"/>
	<path display="inline" fill="#66CB92" d="M420.9,400.8h313.5c5.4,0,9.8-4.4,9.8-9.8c0-5.4-4.4-9.8-9.8-9.8H420.9
		c-5.4,0-9.8,4.4-9.8,9.8C411.1,396.4,415.5,400.8,420.9,400.8z"/>
	<path display="inline" fill="#0070BA" d="M420.7,444h178c5.4,0,9.8-4.3,9.7-9.8c0-5.4-4.4-9.8-9.8-9.8H420.7
		c-5.4,0-9.8,4.4-9.8,9.8C410.9,439.6,415.3,444,420.7,444z"/>
	<polygon display="inline" fill="#66CB92" points="284.7,535.9 277.9,542.7 299.5,564.2 347.4,516.3 340.7,509.5 299.4,550.8 	"/>
	<path display="inline" fill="#66CB92" d="M304.4,593.1c26.4,0,48-21.6,48-48h-9.6V545c0,21.1-17.3,38.3-38.3,38.3
		c-21.1,0-38.3-17.3-38.3-38.3c0-21.1,17.3-38.3,38.3-38.3c3.8,0,7.2,0.5,10.6,1.5l7.6-7.6c-5.8-2-12-3.3-18.2-3.3
		c-26.4,0-48,21.6-48,48S278,593.1,304.4,593.1z"/>
	<path display="inline" fill="#66CB92" d="M420,533.4h313.6c5.4,0,9.8-4.3,9.7-9.8c0-5.4-4.4-9.8-9.8-9.8H420
		c-5.4,0-9.8,4.4-9.8,9.8S414.6,533.4,420,533.4z"/>
	<path display="inline" fill="#0070BA" d="M420,576.8h178c5.4,0,9.8-4.4,9.7-9.8c0-5.4-4.4-9.8-9.8-9.8H420c-5.4,0-9.8,4.4-9.8,9.8
		S414.6,576.8,420,576.8z"/>
	<path display="inline" fill="#66CB92" d="M304.4,731c26.4,0,48-21.6,48-48h-9.6V683c0,21.1-17.3,38.3-38.3,38.3
		c-21.1,0-38.3-17.3-38.3-38.3s17.3-38.3,38.3-38.3c3.8,0,7.2,0.5,10.6,1.5l7.6-7.6c-5.8-2-12-3.3-18.2-3.3c-26.4,0-48,21.6-48,48
		S278,731,304.4,731z"/>
	<polygon display="inline" fill="#66CB92" points="284.7,673.9 277.9,680.6 299.5,702.2 347.4,654.2 340.7,647.5 299.4,688.8 	"/>
	<path display="inline" fill="#66CB92" d="M420,671.5h313.6c5.4,0,9.8-4.4,9.7-9.8c0-5.4-4.4-9.8-9.8-9.8H420
		c-5.4,0-9.8,4.4-9.8,9.8S414.6,671.5,420,671.5z"/>
	<path display="inline" fill="#0070BA" d="M420,714.8h178c5.4,0,9.8-4.3,9.7-9.8c0-5.4-4.4-9.8-9.8-9.8H420c-5.4,0-9.8,4.4-9.8,9.8
		S414.6,714.8,420,714.8z"/>
	<circle display="inline" fill="#FFFFFF" cx="802" cy="226.4" r="14.7"/>
	<circle display="inline" fill="#FFFFFF" cx="845.2" cy="226.4" r="14.7"/>
	<circle display="inline" fill="#FFFFFF" cx="888.3" cy="226.4" r="14.7"/>
</g>
<g display="none">
	<path display="inline" fill="none" d="M623.1,752.1H706c48.7,0,91.6,24.9,116.7,62.6V124.2H304v751.5H484
		C492.1,806.1,551.3,752.1,623.1,752.1z M758.3,629.1c-8.1,51.6-56.5,86.8-108.1,78.7c-51.6-8.1-86.8-56.5-78.7-108.1
		c8.1-51.6,56.5-86.8,108.1-78.7C731.2,529.2,766.4,577.6,758.3,629.1z M411.9,215.3h298.7v16.3H411.9V215.3z M411.9,267.8h298.7
		v16.3H411.9V267.8z M411.9,320.3h298.7v16.3H411.9V320.3z"/>
	<path display="inline" fill="#66CB92" d="M706,752.1h-82.9c-71.8,0-131,54-139.1,123.7h338.6v-61.1
		C797.6,776.9,754.7,752.1,706,752.1z"/>
	<path display="inline" fill="#0070BA" d="M835.5,888.6v-49.8V663.4v-552H205.9c-22.8,0-41.4,18.6-41.4,41.4v694.3
		c0,22.8,18.6,41.4,41.4,41.4h181.5h95.7H835.5z M304,875.8V124.2h518.7v690.4v61.1H484H304z"/>
	
		<ellipse transform="matrix(0.7071 -0.7071 0.7071 0.7071 -239.7276 650.157)" display="inline" fill="#66CB92" cx="664.9" cy="614.5" rx="94.5" ry="94.5"/>
	<rect x="411.9" y="320.3" display="inline" fill="#66CB92" width="298.7" height="16.3"/>
	<rect x="411.9" y="267.8" display="inline" fill="#0070BA" width="298.7" height="16.3"/>
	<rect x="411.9" y="215.3" display="inline" fill="#66CB92" width="298.7" height="16.3"/>
</g>
<g display="none">
	<path display="inline" fill="none" d="M61,765.2c0,1.2,0.1,2.4,0.1,3.5v-8.2C85.8,723.4,128,699,175.9,699h81.4
		c68.8,0,125.8,50.5,136,116.5h495.4c27.7,0,50.3-22.6,50.3-50.3V280H61V765.2z M858.8,672.3l-19.6,6.4c-1.3,4.4-3,8.4-5.1,12.5
		l9.4,18.6L827.4,726l-18.6-9.4c-4,2-8.1,4-12.5,5.1l-6.4,19.6H767l-6.4-19.6c-4.4-1.3-8.4-3-12.5-5.1l-18.6,9.4l-16.2-16.2
		l9.4-18.6c-2-4-4-8.1-5.1-12.5l-19.6-6.4v-22.9l19.6-6.4c1.3-4.4,3-8.4,5.1-12.5l-9.4-18.6l16.2-16.2l18.6,9.4c4-2,8.1-4,12.5-5.1
		l6.4-19.6h22.9l6.4,19.6c4.4,1.3,8.4,3,12.5,5.1l18.6-9.4l16.2,16.2l-9.4,18.6c2,4,4,8.1,5.1,12.5l19.6,6.4V672.3z M538.5,375.3
		h313.3c5.4,0,9.8,4.4,9.8,9.8c0,5.4-4.4,9.8-9.8,9.8H538.5c-5.4,0-9.8-4.4-9.8-9.8C528.7,379.7,533.1,375.3,538.5,375.3z
		 M537.7,439.4h313.3c5.4,0,9.8,4.4,9.8,9.8c0,5.4-4.4,9.8-9.8,9.8H537.7c-5.4,0-9.8-4.4-9.8-9.8
		C527.9,443.8,532.3,439.4,537.7,439.4z M527.9,508.7c0-5.4,4.4-9.8,9.8-9.8h313.3c5.4,0,9.8,4.4,9.8,9.8v0c0,5.4-4.4,9.8-9.8,9.8
		H537.7C532.3,518.5,527.9,514.1,527.9,508.7L527.9,508.7z M216.2,470.8c51.3,0,92.9,41.6,92.9,92.9c0,51.3-41.6,92.9-92.9,92.9
		c-51.3,0-92.9-41.6-92.9-92.9C123.2,512.4,164.8,470.8,216.2,470.8z"/>
	<path display="inline" fill="none" d="M832.4,646.7c-1.3-5.1-3.4-10.1-6.1-14.5l-1-2l8.8-17.2l-8.1-8.1l-17.2,8.8l-2-1
		c-4.4-2.7-9.4-4.7-14.5-6.1l-2-0.7l-6.1-18.2h-11.5l-6.1,18.2l-2,0.7c-5.1,1.3-9.8,3.4-14.5,6.1l-2,1l-17.2-8.8l-8.1,8.1l8.8,17.2
		l-1,2c-2.7,4.4-4.7,9.4-6.1,14.5l-0.7,2l-18.2,6.1v11.5l18.2,6.1l0.7,2c1.3,5.1,3.4,10.1,6.1,14.5l1,2l-8.8,17.2l8.1,8.1l17.2-8.8
		l2,1c4.4,2.7,9.4,4.7,14.5,6.1l2,0.7l6.1,18.2h11.5l6.1-18.2l2-0.7c5.1-1.3,9.8-3.4,14.5-6.1l2-1l17.2,8.8l8.1-8.1l-8.8-17.2l1-2
		c2.7-4.4,4.7-9.4,6.1-14.5l0.7-2l18.2-6.1v-11.5l-18.2-6.1L832.4,646.7z M778.4,698.7c-20.9,0-38.1-17.2-38.1-38.1
		s17.2-38.1,38.1-38.1c20.9,0,38.1,17.2,38.1,38.1S799.4,698.7,778.4,698.7z"/>
	
		<ellipse transform="matrix(0.9925 -0.1222 0.1222 0.9925 -74.8723 100.0611)" display="inline" fill="none" cx="778.4" cy="660.5" rx="30" ry="30"/>
	<path display="inline" fill="#66CB92" d="M257.3,699h-81.4c-47.9,0-90,24.4-114.7,61.5v8.2c1.8,26.1,23.6,46.7,50.1,46.7h282
		C383.1,749.5,326.1,699,257.3,699z"/>
	
		<ellipse transform="matrix(0.7071 -0.7071 0.7071 0.7071 -335.2787 317.9649)" display="inline" fill="#66CB92" cx="216.2" cy="563.7" rx="92.9" ry="92.9"/>
	<path display="inline" fill="#0070BA" d="M888.7,173.7H111.3c-33.7,0-61.1,27.4-61.1,61.1v530.5c0,12.9,4,24.9,10.9,34.8
		c6.1,8.8,14.5,16,24.4,20.6c7.8,3.7,16.6,5.7,25.8,5.7h777.4c33.7,0,61.1-27.4,61.1-61.1V234.8
		C949.7,201.1,922.4,173.7,888.7,173.7z M205.1,226.6c0,8.1-6.6,14.7-14.7,14.7c-8.1,0-14.7-6.6-14.7-14.7c0-8.1,6.6-14.7,14.7-14.7
		C198.5,211.9,205.1,218.5,205.1,226.6z M162,226.6c0,8.1-6.6,14.7-14.7,14.7s-14.7-6.6-14.7-14.7c0-8.1,6.6-14.7,14.7-14.7
		S162,218.5,162,226.6z M104.1,211.9c8.1,0,14.7,6.6,14.7,14.7c0,8.1-6.6,14.7-14.7,14.7s-14.7-6.6-14.7-14.7
		C89.5,218.5,96,211.9,104.1,211.9z M939,765.2c0,27.7-22.6,50.3-50.3,50.3H393.3h-282c-26.5,0-48.3-20.7-50.1-46.7
		c-0.1-1.2-0.1-2.3-0.1-3.5V280H939V765.2z"/>
	<path display="inline" fill="#66CB92" d="M538.5,394.9h313.3c5.4,0,9.8-4.4,9.8-9.8c0-5.4-4.4-9.8-9.8-9.8H538.5
		c-5.4,0-9.8,4.4-9.8,9.8C528.7,390.6,533.1,394.9,538.5,394.9z"/>
	<path display="inline" fill="#0070BA" d="M537.7,459h313.3c5.4,0,9.8-4.4,9.8-9.8c0-5.4-4.4-9.8-9.8-9.8H537.7
		c-5.4,0-9.8,4.4-9.8,9.8C527.9,454.6,532.3,459,537.7,459z"/>
	<path display="inline" fill="#66CB92" d="M537.7,518.5h313.3c5.4,0,9.8-4.4,9.8-9.8v0c0-5.4-4.4-9.8-9.8-9.8H537.7
		c-5.4,0-9.8,4.4-9.8,9.8v0C527.9,514.1,532.3,518.5,537.7,518.5z"/>
	<circle display="inline" fill="#FFFFFF" cx="104.1" cy="226.6" r="14.7"/>
	<circle display="inline" fill="#FFFFFF" cx="147.3" cy="226.6" r="14.7"/>
	<circle display="inline" fill="#FFFFFF" cx="190.4" cy="226.6" r="14.7"/>
	<path display="inline" fill="#66CB92" d="M778.4,622.4c-20.9,0-38.1,17.2-38.1,38.1s17.2,38.1,38.1,38.1
		c20.9,0,38.1-17.2,38.1-38.1S799.4,622.4,778.4,622.4z M778.4,690.6c-16.5,0-30-13.5-30-30s13.5-30,30-30c16.5,0,30,13.5,30,30
		S795,690.6,778.4,690.6z"/>
	<path display="inline" fill="#0070BA" d="M834.1,630.5l9.4-18.6l-16.2-16.2l-18.6,9.4c-4-2-8.1-3.7-12.5-5.1l-6.4-19.6H767
		l-6.4,19.6c-4.4,1-8.4,3-12.5,5.1l-18.6-9.4l-16.2,16.2l9.4,18.6c-2,4-3.7,8.1-5.1,12.5l-19.6,6.4v22.9l19.6,6.4
		c1,4.4,3,8.4,5.1,12.5l-9.4,18.6l16.2,16.2l18.6-9.4c4,2,8.1,3.7,12.5,5.1l6.4,19.6h22.9l6.4-19.6c4.4-1,8.4-3,12.5-5.1l18.6,9.4
		l16.2-16.2l-9.4-18.6c2-4,3.7-8.1,5.1-12.5l19.6-6.4v-22.9l-19.6-6.4C838.2,638.6,836.1,634.5,834.1,630.5z M851.3,666.3l-18.2,6.1
		l-0.7,2c-1.3,5.1-3.4,10.1-6.1,14.5l-1,2l8.8,17.2l-8.1,8.1l-17.2-8.8l-2,1c-4.7,2.7-9.4,4.7-14.5,6.1l-2,0.7l-6.1,18.2h-11.5
		l-6.1-18.2l-2-0.7c-5.1-1.3-10.1-3.4-14.5-6.1l-2-1l-17.2,8.8l-8.1-8.1l8.8-17.2l-1-2c-2.7-4.4-4.7-9.4-6.1-14.5l-0.7-2l-18.2-6.1
		v-11.5l18.2-6.1l0.7-2c1.3-5.1,3.4-10.1,6.1-14.5l1-2l-8.8-17.2l8.1-8.1l17.2,8.8l2-1c4.7-2.7,9.4-4.7,14.5-6.1l2-0.7l6.1-18.2
		h11.5l6.1,18.2l2,0.7c5.1,1.3,10.1,3.4,14.5,6.1l2,1l17.2-8.8l8.1,8.1l-8.8,17.2l1,2c2.7,4.4,4.7,9.4,6.1,14.5l0.7,2l18.2,6.1
		V666.3z"/>
</g>
<g display="none">
	<path display="inline" fill="none" d="M397.6,444.9c-1-2.8-2.1-6-3.4-9.8c-1.2-3.8-2.4-7.8-3.6-12.2c-1.2,4.4-2.3,8.5-3.5,12.3
		c-1.2,3.8-2.3,7.1-3.4,9.9l-22.4,62.1h58.6L397.6,444.9z"/>
	<path display="inline" fill="none" d="M576.9,482.4c4.6-1.6,8.5-3.9,11.6-6.9c3.1-3,5.4-6.6,6.9-10.9c1.5-4.3,2.3-9,2.3-14.4
		c0-5-0.8-9.5-2.3-13.5c-1.5-4-3.8-7.5-6.9-10.4c-3.1-2.9-6.9-5.1-11.6-6.6c-4.6-1.5-10.1-2.3-16.4-2.3h-25.7v67.3h25.7
		C566.8,484.8,572.2,484,576.9,482.4z"/>
	<path display="inline" fill="none" d="M168.8,313.2v373.6L500,873.6l331.2-186.8V313.2L500,126.4L168.8,313.2z M373.2,390.6h34.9
		l72.3,187.3H454c-3,0-5.4-0.8-7.3-2.3c-1.9-1.5-3.3-3.4-4.1-5.6l-13.8-38.4h-76.2l-13.8,38.4c-0.7,2-2,3.8-4,5.5
		c-2,1.6-4.4,2.4-7.3,2.4h-26.6L373.2,390.6z M700.2,642.6H300.7v-17.2h399.5V642.6z M662.6,390.6h34.2v187.3h-34.2V390.6z
		 M500.6,390.6h59.9c12.3,0,22.9,1.5,31.9,4.4c9,3,16.5,7.1,22.3,12.3c5.8,5.3,10.1,11.6,12.9,18.9c2.8,7.3,4.2,15.3,4.2,24
		c0,9.1-1.5,17.4-4.4,24.9c-2.9,7.5-7.4,14-13.4,19.4c-6,5.4-13.4,9.6-22.3,12.7c-8.9,3-19.3,4.5-31.2,4.5h-25.7v66.2h-34.2V390.6z"
		/>
	<path display="inline" fill="#0070BA" d="M838.6,300.1L507.4,113.3c-2.3-1.3-4.8-1.9-7.4-1.9s-5.1,0.6-7.4,1.9L161.4,300.1
		c-4.7,2.7-7.6,7.7-7.6,13.1v373.6c0,5.4,2.9,10.4,7.6,13.1l331.2,186.8c2.3,1.3,4.8,1.9,7.4,1.9s5.1-0.6,7.4-1.9l331.2-186.8
		c4.7-2.7,7.6-7.7,7.6-13.1V313.2C846.3,307.8,843.3,302.8,838.6,300.1z M831.2,686.8L500,873.6L168.8,686.8V313.2L500,126.4
		l331.2,186.8V686.8z"/>
	<path display="inline" fill="#66CB92" d="M334.8,575.5c2-1.6,3.3-3.4,4-5.5l13.8-38.4h76.2l13.8,38.4c0.8,2.2,2.2,4.1,4.1,5.6
		c1.9,1.5,4.3,2.3,7.3,2.3h26.5l-72.3-187.3h-34.9l-72.3,187.3h26.6C330.4,577.9,332.9,577.1,334.8,575.5z M383.8,445.1
		c1.1-2.8,2.2-6.1,3.4-9.9c1.2-3.8,2.3-7.9,3.5-12.3c1.2,4.4,2.4,8.5,3.6,12.2c1.2,3.8,2.4,7,3.4,9.8l22.5,62.4h-58.6L383.8,445.1z"
		/>
	<path display="inline" fill="#66CB92" d="M534.8,511.8h25.7c11.9,0,22.3-1.5,31.2-4.5c8.9-3,16.3-7.2,22.3-12.7
		c6-5.4,10.4-11.9,13.4-19.4c2.9-7.5,4.4-15.8,4.4-24.9c0-8.7-1.4-16.7-4.2-24c-2.8-7.3-7.1-13.6-12.9-18.9
		c-5.8-5.3-13.3-9.4-22.3-12.3c-9-3-19.7-4.4-31.9-4.4h-59.9v187.3h34.2V511.8z M534.8,417.5h25.7c6.3,0,11.8,0.8,16.4,2.3
		c4.6,1.5,8.5,3.7,11.6,6.6c3.1,2.9,5.4,6.3,6.9,10.4c1.5,4,2.3,8.6,2.3,13.5c0,5.3-0.8,10.1-2.3,14.4c-1.5,4.3-3.8,7.9-6.9,10.9
		c-3.1,3-6.9,5.3-11.6,6.9c-4.6,1.6-10.1,2.4-16.4,2.4h-25.7V417.5z"/>
	<rect x="662.6" y="390.6" display="inline" fill="#66CB92" width="34.2" height="187.3"/>
	<rect x="300.7" y="625.4" display="inline" fill="#66CB92" width="399.5" height="17.2"/>
</g>
<g display="none">
	<path display="inline" fill="none" d="M199.3,722.8h711.6c12.1,0,22.8-11.4,22.8-24.5V202.6H199.3V722.8z M399.4,672H261v-19.5
		h138.4V672z M399.4,635.2H261v-19.5h138.4V635.2z M399.4,600.6H261V580h138.4V600.6z M399.4,563.8H261v-19.5h138.4V563.8z
		 M399.4,528.1H261v-19.5h138.4V528.1z M399.4,491.3H261V474h138.4V491.3z M399.4,455.7H261v-19.5h138.4V455.7z M399.4,418.9H261
		v-19.5h138.4V418.9z M399.4,382.1H261v-19.5h138.4V382.1z M399.4,345.3H261v-19.5h138.4V345.3z M596.3,672H417.8v-19.5h178.5V672z
		 M596.3,635.2H417.8v-19.5h178.5V635.2z M596.3,600.6H417.8V580h178.5V600.6z M596.3,563.8H417.8v-19.5h178.5V563.8z M596.3,528.1
		H417.8v-19.5h178.5V528.1z M596.3,491.3H417.8V474h178.5V491.3z M596.3,455.7H417.8v-19.5h178.5V455.7z M596.3,418.9H417.8v-19.5
		h178.5V418.9z M596.3,382.1H417.8v-19.5h178.5V382.1z M860.2,285.9h42.2v19.5h-42.2V285.9z M820.1,285.9h28.1v19.5h-28.1V285.9z
		 M778,285.9h30.3v19.5H778V285.9z M614.6,325.9h288.8v19.5H614.6V325.9z M614.6,362.6h288.8v19.5H614.6V362.6z M614.6,399.4h288.8
		v19.5H614.6V399.4z M614.6,436.2h288.8v19.5H614.6V436.2z M614.6,474h288.8v17.3H614.6V474z M614.6,508.7h288.8v19.5H614.6V508.7z
		 M614.6,544.3h288.8v19.5H614.6V544.3z M614.6,580h288.8v20.5H614.6V580z M614.6,615.7h288.8v19.5H614.6V615.7z M614.6,652.5h288.8
		V672H614.6V652.5z M596.3,345.3H417.8v-19.5h178.5V345.3z M217.7,259.9h181.7v6.5H217.7V259.9z M217.7,285.9h292v19.5h-292V285.9z
		 M217.7,325.9h24.9v19.5h-24.9V325.9z M217.7,362.6h24.9v19.5h-24.9V362.6z M217.7,399.4h24.9v19.5h-24.9V399.4z M217.7,436.2h24.9
		v19.5h-24.9V436.2z M217.7,474h24.9v17.3h-24.9V474z M217.7,508.7h24.9v19.5h-24.9V508.7z M217.7,544.3h24.9v19.5h-24.9V544.3z
		 M217.7,580h24.9v20.5h-24.9V580z M217.7,615.7h24.9v19.5h-24.9V615.7z M217.7,652.5h24.9V672h-24.9V652.5z"/>
	<rect x="860.2" y="285.9" display="inline" fill="#B8D4E0" width="42.2" height="19.5"/>
	<rect x="614.6" y="652.5" display="inline" fill="#B8D4E0" width="288.8" height="19.5"/>
	<rect x="417.8" y="652.5" display="inline" fill="#B8D4E0" width="178.5" height="19.5"/>
	<rect x="261" y="652.5" display="inline" fill="#B8D4E0" width="138.4" height="19.5"/>
	<rect x="217.7" y="652.5" display="inline" fill="#B8D4E0" width="24.9" height="19.5"/>
	<rect x="261" y="615.7" display="inline" fill="#66CB92" width="138.4" height="19.5"/>
	<rect x="614.6" y="615.7" display="inline" fill="#66CB92" width="288.8" height="19.5"/>
	<rect x="417.8" y="615.7" display="inline" fill="#66CB92" width="178.5" height="19.5"/>
	<rect x="217.7" y="615.7" display="inline" fill="#66CB92" width="24.9" height="19.5"/>
	<rect x="417.8" y="436.2" display="inline" fill="#66CB92" width="178.5" height="19.5"/>
	<rect x="261" y="436.2" display="inline" fill="#66CB92" width="138.4" height="19.5"/>
	<rect x="217.7" y="436.2" display="inline" fill="#66CB92" width="24.9" height="19.5"/>
	<rect x="614.6" y="436.2" display="inline" fill="#66CB92" width="288.8" height="19.5"/>
	<rect x="217.7" y="399.4" display="inline" fill="#B8D4E0" width="24.9" height="19.5"/>
	<rect x="261" y="399.4" display="inline" fill="#B8D4E0" width="138.4" height="19.5"/>
	<rect x="417.8" y="399.4" display="inline" fill="#B8D4E0" width="178.5" height="19.5"/>
	<rect x="614.6" y="399.4" display="inline" fill="#B8D4E0" width="288.8" height="19.5"/>
	<rect x="261" y="508.7" display="inline" fill="#B8D4E0" width="138.4" height="19.5"/>
	<rect x="614.6" y="508.7" display="inline" fill="#B8D4E0" width="288.8" height="19.5"/>
	<rect x="217.7" y="508.7" display="inline" fill="#B8D4E0" width="24.9" height="19.5"/>
	<rect x="417.8" y="508.7" display="inline" fill="#B8D4E0" width="178.5" height="19.5"/>
	<rect x="261" y="474" display="inline" fill="#0070BA" width="138.4" height="17.3"/>
	<rect x="614.6" y="474" display="inline" fill="#0070BA" width="288.8" height="17.3"/>
	<rect x="417.8" y="474" display="inline" fill="#0070BA" width="178.5" height="17.3"/>
	<rect x="217.7" y="474" display="inline" fill="#0070BA" width="24.9" height="17.3"/>
	<rect x="417.8" y="580" display="inline" fill="#B8D4E0" width="178.5" height="20.5"/>
	<rect x="614.6" y="580" display="inline" fill="#B8D4E0" width="288.8" height="20.5"/>
	<rect x="217.7" y="580" display="inline" fill="#B8D4E0" width="24.9" height="20.5"/>
	<rect x="261" y="580" display="inline" fill="#B8D4E0" width="138.4" height="20.5"/>
	<rect x="417.8" y="544.3" display="inline" fill="#66CB92" width="178.5" height="19.5"/>
	<rect x="217.7" y="544.3" display="inline" fill="#66CB92" width="24.9" height="19.5"/>
	<rect x="614.6" y="544.3" display="inline" fill="#66CB92" width="288.8" height="19.5"/>
	<rect x="261" y="544.3" display="inline" fill="#66CB92" width="138.4" height="19.5"/>
	<rect x="417.8" y="362.6" display="inline" fill="#66CB92" width="178.5" height="19.5"/>
	<rect x="217.7" y="362.6" display="inline" fill="#66CB92" width="24.9" height="19.5"/>
	<rect x="261" y="362.6" display="inline" fill="#66CB92" width="138.4" height="19.5"/>
	<rect x="614.6" y="362.6" display="inline" fill="#66CB92" width="288.8" height="19.5"/>
	<rect x="614.6" y="325.9" display="inline" fill="#B8D4E0" width="288.8" height="19.5"/>
	<rect x="217.7" y="325.9" display="inline" fill="#B8D4E0" width="24.9" height="19.5"/>
	<rect x="417.8" y="325.9" display="inline" fill="#B8D4E0" width="178.5" height="19.5"/>
	<rect x="261" y="325.9" display="inline" fill="#B8D4E0" width="138.4" height="19.5"/>
	<path display="inline" fill="#66CB92" d="M315.1,832c-9,0-16.2,7.3-16.2,16.2s7.3,16.2,16.2,16.2h389.4c9,0,16.2-7.3,16.2-16.2
		s-7.3-16.2-16.2-16.2H517.3h-16.2H315.1z"/>
	<rect x="217.7" y="285.9" display="inline" fill="#B8D4E0" width="292" height="19.5"/>
	<rect x="217.7" y="259.9" display="inline" fill="#B8D4E0" width="181.7" height="6.5"/>
	<path display="inline" fill="#0070BA" d="M910.9,135.5H90.2c-21.8,0-40.1,17.7-40.1,38.6v524.2c0,21.7,18.8,40.7,40.1,40.7h410.9
		v93h16.2v-93h393.6c21.1,0,39-18.6,39-40.7V174.1C949.9,152.8,932.4,135.5,910.9,135.5z M933.7,698.3c0,13-10.6,24.5-22.8,24.5
		H199.3V202.6h734.4V698.3z"/>
	<rect x="820.1" y="285.9" display="inline" fill="#B8D4E0" width="28.1" height="19.5"/>
	<rect x="778" y="285.9" display="inline" fill="#B8D4E0" width="30.3" height="19.5"/>
</g>
<g display="none">
	<path display="inline" fill="#0070BA" d="M816,492v342.9c0,1.7-1.4,3.1-3.1,3.1H64.5c-1.7,0-3.1-1.4-3.1-3.1V368.2H657l-78-61.4
		l-2.3-1.8l-5.1-4l-7.3-5.8H64.5c-8.1,0-14.7,6.6-14.7,14.7v525c0,8.1,6.6,14.7,14.7,14.7h748.4c8.1,0,14.7-6.6,14.7-14.7V501.1
		l-5.8-4.6L816,492z M83,341c-5.9,0-10.7-4.8-10.7-10.7c0-5.9,4.8-10.7,10.7-10.7s10.7,4.8,10.7,10.7C93.7,336.2,88.9,341,83,341z
		 M114.1,341c-5.9,0-10.7-4.8-10.7-10.7c0-5.9,4.8-10.7,10.7-10.7c5.9,0,10.7,4.8,10.7,10.7C124.8,336.2,120,341,114.1,341z
		 M145.3,341c-5.9,0-10.7-4.8-10.7-10.7c0-5.9,4.8-10.7,10.7-10.7c5.9,0,10.7,4.8,10.7,10.7C156,336.2,151.2,341,145.3,341z"/>
	<circle display="inline" fill="#FFFFFF" cx="83" cy="330.3" r="10.7"/>
	<circle display="inline" fill="#FFFFFF" cx="114.1" cy="330.3" r="10.7"/>
	<circle display="inline" fill="#FFFFFF" cx="145.3" cy="330.3" r="10.7"/>
	<polygon display="inline" fill="#0070BA" points="139.3,640.2 242.5,693.4 242.5,678 155.5,634.4 155.5,634 242.5,590.4 242.5,575 
		139.3,628.2 	"/>
	<polygon display="inline" fill="#0070BA" points="257,702.3 271.9,702.3 334.2,541 319,541 	"/>
	<polygon display="inline" fill="#0070BA" points="348.2,590.4 435.8,634 435.8,634.4 348.2,678 348.2,693.4 451.4,640.4 451.4,628 
		348.2,575 	"/>
	<polygon display="inline" fill="#FFFFFF" points="821.8,395.1 816,374.6 814.2,368.2 812.9,363.6 816,361.4 821.8,357.2 827.6,353 
		888.1,308.8 827.2,306.4 821,306.2 816,306 795.2,305.2 795.1,305 793.8,301 791.9,295.2 766.3,216.7 737.3,295.2 735.2,301 
		734.1,304 641,304.1 642.1,305 644.3,306.8 714.1,361.8 712,368.2 709.6,375.6 706.6,384.8 685.4,450.3 762.8,398.6 816,437.2 
		821.8,441.3 827.6,445.5 838.2,453.2 827.6,415.6 	"/>
	<path display="inline" fill="#66CB92" d="M808.2,287.9l-40.9-125.4l-45.7,123.7l-125.3,0.2l-6.5,0l11.1,8.8l7.3,5.8l5.1,4l2.3,1.8
		l77.7,61.3l0,0.1l-3,9.2l-4.4,13.5l-33.2,102.6l89.4-59.7l11.7-7.8l8.6-5.7l53.6,38.8l5.8,4.2l5.8,4.2l5.9,4.2l35.8,25.9
		l-35.8-126.9L940,293.1L808.2,287.9z M827.6,445.5l-5.8-4.2l-5.8-4.2l-53.2-38.5l-77.4,51.7l21.2-65.5l3-9.2l2.4-7.4l2.1-6.4
		l-69.7-55l-2.3-1.8l-1.1-0.8l93.1-0.1l1.1-3l2.1-5.8l29-78.5l25.6,78.5l1.9,5.8l1.3,4l0.1,0.2L816,306l5,0.2l6.2,0.2l61,2.4
		L827.6,353l-5.8,4.2l-5.8,4.2l-3.1,2.2l1.3,4.5l1.8,6.4l5.8,20.5l5.8,20.5l10.6,37.6L827.6,445.5z"/>
	<polygon display="inline" fill="#66CB92" points="600.1,220.5 623.3,205 646,221.4 638.4,194.5 661,178.1 633,177 624.4,150.4 
		614.7,176.6 586.8,176.7 608.7,194 	"/>
	<polygon display="inline" fill="#66CB92" points="889.3,220.5 912.5,205 935.1,221.4 927.6,194.5 950.1,178.1 922.2,177 
		913.6,150.4 903.9,176.6 876,176.7 897.9,194 	"/>
</g>
<g>
	<path fill="none" d="M342.4,536.9l3.6-7.2c3.5-5.8,6.5-12.8,8.5-20.4l0.1-0.5l2.3-6.8l26.5-8.8v-6.5l-26.5-8.8l-2.4-7.3
		c-2-7.6-5-14.6-8.5-20.4l-0.3-0.6l-3.3-6.6l12.8-25.1l-4.5-4.5l-25.1,12.8l-7.2-3.6c-5.8-3.5-12.8-6.5-20.4-8.5l-0.5-0.1l-6.8-2.3
		l-8.8-26.5h-6.5l-8.8,26.5l-7.3,2.4c-6.9,1.8-13.6,4.7-20.6,8.6l-0.4,0.2l-6.6,3.3l-25.1-12.8l-4.5,4.5l12.8,25.1l-3.6,7.2
		c-3.5,5.8-6.5,12.8-8.5,20.4l-0.1,0.5l-2.3,6.8l-26.5,8.8v6.5l26.5,8.8l2.4,7.3c2,7.6,5,14.6,8.5,20.4l0.3,0.6l3.3,6.6L202,562
		l4.5,4.5l25.1-12.8l7.2,3.6c5.8,3.5,12.8,6.5,20.4,8.5l0.5,0.1l6.8,2.3l8.8,26.5h6.5l8.8-26.5l7.3-2.4c6.9-1.8,13.6-4.7,20.6-8.6
		l0.4-0.2l6.6-3.3l25.1,12.8l4.5-4.5L342.4,536.9z M278.6,558.1c-37.4,0-68.1-30.7-68.1-68.1c0-37.4,30.7-68.1,68.1-68.1
		c37.4,0,68.1,30.7,68.1,68.1C346.7,527.3,316,558.1,278.6,558.1z"/>
	<path fill="none" d="M490,569.7h-6.4l-5.9,17.7l-4,1.3c-4.6,1.2-9.2,3.1-13.8,5.8l-0.2,0.1l-3.7,1.8l-16.7-8.5l-4.4,4.4l8.5,16.7
		l-2,4c-2.4,3.9-4.4,8.6-5.7,13.7l-0.1,0.2l-1.3,3.8l-17.7,5.9v6.4l17.7,5.9l1.3,4c1.4,5.1,3.3,9.8,5.7,13.7l0.2,0.3l1.8,3.7
		l-8.5,16.7l4.4,4.4l16.7-8.5l4,2c3.9,2.4,8.6,4.4,13.7,5.7l0.2,0.1l3.8,1.3l5.9,17.7h6.4l5.9-17.7l4-1.3c4.6-1.2,9.2-3.1,13.8-5.8
		l0.2-0.1l3.7-1.8l16.7,8.5l4.4-4.4l-8.5-16.7l2-4c2.4-3.9,4.4-8.6,5.7-13.7l0.1-0.2l1.3-3.8L557,643v-6.4l-17.7-5.9l-1.3-4
		c-1.4-5.1-3.3-9.8-5.7-13.7l-0.2-0.3l-1.8-3.7l8.5-16.7l-4.4-4.4l-16.7,8.5l-4-2c-3.9-2.4-8.6-4.4-13.7-5.7l-0.2-0.1l-3.8-1.3
		L490,569.7z M531.5,639.8c0,24.5-20.1,44.6-44.6,44.6c-24.5,0-44.6-20.1-44.6-44.6c0-24.5,20.1-44.6,44.6-44.6
		C511.3,595.2,531.5,615.3,531.5,639.8z"/>
	<path fill="none" d="M355.7,600.6l-30.2-15.4c-4.2,2.1-8.5,4-13.2,5.5l-10.4,31.6h-46.7l-10.4-31.8c-4.3-1.5-8.7-3.3-13.1-5.3
		l-30.3,15.4l-33-33l15.4-30.2c-2.1-4.2-4-8.5-5.5-13.2l-31.6-10.4v-46.7l31.8-10.4c1.5-4.3,3.3-8.7,5.3-13.1l-15.4-30.3l33-33
		l30.2,15.4c4.2-2.1,8.5-4,13.2-5.5l10.4-31.6h46.7l10.4,31.8c4.3,1.5,8.7,3.3,13.1,5.3l30.3-15.4l33,33l-15.4,30.2
		c2.1,4.2,4,8.5,5.5,13.2l31.6,10.4v46.7l-31.8,10.4c-1.5,4.3-3.3,8.7-5.3,13.1l15.4,30.3L355.7,600.6z M571.8,654.4l-20.6,6.7
		c-1.1,3.2-2.4,6.4-4,9.7l9.9,19.5l-20.1,20.1l-19.5-9.9c-3.1,1.5-6.3,3-9.8,4.1l-6.7,20.4h-28.5l-6.7-20.6c-3.2-1.1-6.4-2.4-9.7-4
		l-19.5,9.9l-20.1-20.1l9.9-19.5c-1.5-3.1-3-6.3-4.1-9.8l-20.4-6.7v-28.5l20.6-6.7c1.1-3.2,2.4-6.4,4-9.7l-9.9-19.5l20.1-20.1
		l19.5,9.9c3.1-1.5,6.3-3,9.8-4.1l6.7-20.4h28.5l6.7,20.6c3.2,1.1,6.4,2.4,9.7,4l19.5-9.9l20.1,20.1l-9.9,19.5
		c1.5,3.1,3,6.3,4.1,9.8l20.4,6.7V654.4z"/>
	<path fill="#0070BA" d="M773.3,771.2H104.4V326.3c0-8.6,7-15.5,15.5-15.5h462.9v-10H119.9c-14.1,0-25.6,11.5-25.6,25.6v444.9H57.6
		c-4,0-7.3,3.3-7.3,7.3v19.1c0,4,3.3,7.3,7.3,7.3H820c4,0,7.3-3.3,7.3-7.3v-19.1c0-4-3.3-7.3-7.3-7.3h-36.7V641.3h-10V771.2z
		 M371.4,783.9h134.7c2.1,0,3.7,1.7,3.7,3.7c0,1.5-0.9,2.8-2.2,3.4c-0.5,0.2-1,0.3-1.6,0.3H371.4c-0.6,0-1.1-0.1-1.6-0.3
		c-1.3-0.6-2.2-1.9-2.2-3.4C367.7,785.6,369.4,783.9,371.4,783.9z"/>
	
		<ellipse transform="matrix(0.9403 -0.3404 0.3404 0.9403 -150.1536 124.1007)" fill="#0070BA" cx="278.6" cy="490" rx="68.1" ry="68.1"/>
	<path fill="#0070BA" d="M378.6,524.3l31.8-10.4v-46.7l-31.6-10.4c-1.5-4.6-3.5-9-5.5-13.2l15.4-30.2l-33-33l-30.3,15.4
		c-4.4-2.1-8.7-3.8-13.1-5.3l-10.4-31.8h-46.7l-10.4,31.6c-4.6,1.5-9,3.5-13.2,5.5l-30.2-15.4l-33,33l15.4,30.3
		c-2.1,4.4-3.8,8.7-5.3,13.1l-31.8,10.4v46.7l31.6,10.4c1.5,4.6,3.5,9,5.5,13.2l-15.4,30.2l33,33l30.3-15.4
		c4.4,2.1,8.7,3.8,13.1,5.3l10.4,31.8h46.7l10.4-31.6c4.6-1.5,9-3.5,13.2-5.5l30.2,15.4l33-33l-15.4-30.3
		C375.3,532.9,377.1,528.6,378.6,524.3z M325.5,553.7l-6.6,3.3l-0.4,0.2c-6.9,4-13.7,6.8-20.6,8.6l-7.3,2.4l-8.8,26.5h-6.5
		l-8.8-26.5l-6.8-2.3l-0.5-0.1c-7.6-2-14.6-5-20.4-8.5l-7.2-3.6l-25.1,12.8L202,562l12.8-25.1l-3.3-6.6l-0.3-0.6
		c-3.5-5.8-6.5-12.8-8.5-20.4l-2.4-7.3l-26.5-8.8v-6.5l26.5-8.8l2.3-6.8l0.1-0.5c2-7.6,5-14.6,8.5-20.4l3.6-7.2L202,417.9l4.5-4.5
		l25.1,12.8l6.6-3.3l0.4-0.2c6.9-4,13.7-6.8,20.6-8.6l7.3-2.4l8.8-26.5h6.5l8.8,26.5l6.8,2.3l0.5,0.1c7.6,2,14.6,5,20.4,8.5l7.2,3.6
		l25.1-12.8l4.5,4.5L342.4,443l3.3,6.6l0.3,0.6c3.5,5.8,6.5,12.8,8.5,20.4l2.4,7.3l26.5,8.8v6.5l-26.5,8.8l-2.3,6.8l-0.1,0.5
		c-2,7.6-5,14.6-8.5,20.4l-3.6,7.2l12.8,25.1l-4.5,4.5L325.5,553.7z"/>
	
		<ellipse transform="matrix(0.9951 -9.853799e-02 9.853799e-02 0.9951 -60.6745 51.085)" fill="#0070BA" cx="486.8" cy="639.8" rx="44.6" ry="44.6"/>
	<path fill="#0070BA" d="M547.3,609.4l9.9-19.5l-20.1-20.1l-19.5,9.9c-3.3-1.6-6.5-2.9-9.7-4l-6.7-20.6h-28.5l-6.7,20.4
		c-3.4,1-6.7,2.5-9.8,4.1l-19.5-9.9l-20.1,20.1l9.9,19.5c-1.6,3.3-2.9,6.5-4,9.7l-20.6,6.7v28.5l20.4,6.7c1,3.4,2.5,6.7,4.1,9.8
		l-9.9,19.5l20.1,20.1l19.5-9.9c3.3,1.6,6.5,2.9,9.7,4l6.7,20.6h28.5l6.7-20.4c3.4-1,6.7-2.5,9.8-4.1l19.5,9.9l20.1-20.1l-9.9-19.5
		c1.6-3.3,2.9-6.5,4-9.7l20.6-6.7v-28.5l-20.4-6.7C550.3,615.7,548.8,612.5,547.3,609.4z M499.9,588.7c5.1,1.4,9.8,3.3,13.7,5.7l4,2
		l16.7-8.5l4.4,4.4l-8.5,16.7l1.8,3.7l0.2,0.3c2.4,3.9,4.4,8.6,5.7,13.7l1.3,4l17.7,5.9v6.4l-17.7,5.9l-1.3,3.8l-0.1,0.2
		c-1.4,5.1-3.3,9.8-5.7,13.7l-2,4l8.5,16.7l-4.4,4.4l-16.7-8.5l-3.7,1.8l-0.2,0.1c-4.7,2.7-9.2,4.6-13.8,5.8l-4,1.3l-5.9,17.7h-6.4
		l-5.9-17.7L474,691l-0.2-0.1c-5.1-1.4-9.8-3.3-13.7-5.7l-4-2l-16.7,8.5l-4.4-4.4l8.5-16.7l-1.8-3.7l-0.2-0.3
		c-2.4-3.9-4.4-8.6-5.7-13.7l-1.3-4l-17.7-5.9v-6.4l17.7-5.9l1.3-3.8l0.1-0.2c1.4-5.1,3.3-9.8,5.7-13.7l2-4l-8.5-16.7l4.4-4.4
		l16.7,8.5l3.7-1.8l0.2-0.1c4.7-2.7,9.2-4.6,13.8-5.8l4-1.3l5.9-17.7h6.4l5.9,17.7l3.8,1.3L499.9,588.7z"/>
	<path fill="#FFFFFF" d="M369.9,791.1c0.5,0.2,1,0.3,1.6,0.3h134.7c0.6,0,1.1-0.1,1.6-0.3c1.3-0.6,2.2-1.9,2.2-3.4
		c0-2.1-1.7-3.7-3.7-3.7H371.4c-2.1,0-3.7,1.7-3.7,3.7C367.7,789.2,368.6,790.5,369.9,791.1z"/>
	<path fill="#66CB92" d="M894.8,241l-84.5-33.3l-31.8-12.6l-31.8,12.6L662.3,241l-54.9,21.7v15.9v22.2v10v10.9v3.4
		c0,2.1,0,4.2,0.1,6.2c0.8,45,10.3,89.8,27.7,129.9c19.2,44.3,47.6,82.1,82,109.3l7.6,6l47.1,37.2l1.3,1l5.3,4.2l4.8-3.8l1.8-1.4
		l47.1-37.2l7.6-6c34.5-27.2,62.8-65,82-109.3c18.2-42,27.8-89,27.8-136.1v-3.4v-59L894.8,241z M875.1,346.5L860.5,361l-8.5,8.5
		l-68.7,68.2l-10,10l-18.4,18.2c-1.8,1.8-4.3,2.5-6.7,2.3c-1.8-0.2-3.5-0.9-4.8-2.3l-18-17.8l-38.1-37.5c-3.2-3.1-3.2-8.2,0-11.3
		c3.2-3.1,8.3-3.1,11.4,0l8.7,8.6l12.5,12.3l29.1,28.7l22.6-22.5l1.5-1.5l10-10l15.2-15.1l56.7-56.3l7.5-7.4l0.9-0.9
		c3.2-3.1,8.3-3.1,11.4,0c-3.2-3.1,3.2,3.1,0,0C878.3,338.3,878.3,343.4,875.1,346.5z"/>
	<path fill="#FFFFFF" d="M875.1,335.2C878.3,338.3,872,332.1,875.1,335.2L875.1,335.2z"/>
	<path fill="#FFFFFF" d="M863.7,335.2l-0.9,0.9l-7.5,7.4l-56.7,56.3L783.3,415l-10,10l-1.5,1.5L749.2,449l-29.1-28.7l-12.5-12.3
		l-8.7-8.6c-3.2-3.1-8.3-3.1-11.4,0c-3.2,3.1-3.2,8.2,0,11.3l38.1,37.5l18,17.8c1.3,1.3,3,2.1,4.8,2.3c2.4,0.3,4.9-0.5,6.7-2.3
		l18.4-18.2l10-10l68.7-68.2l8.5-8.5l14.6-14.5c3.2-3.1,3.2-8.2,0-11.3C872,332.1,866.8,332.1,863.7,335.2z"/>
</g>
</svg>
