<svg xmlns="http://www.w3.org/2000/svg" viewBox="0 0 1000 1000"><defs><style>.cls-1{fill:#9fcde0;}.cls-2{fill:#0070ba;}.cls-3{fill:#66cb92;}</style></defs><g id="Grafik"><path class="cls-1" d="M394.6,611.17l-24,1.77a116,116,0,0,1-10.77,25.57l15.59,18.33a7.05,7.05,0,0,1-1.1,8.55l-31.36,31.37a7.07,7.07,0,0,1-8.55,1.09L316,682.26A116.55,116.55,0,0,1,290.47,693l-1.77,24a7,7,0,0,1-6.83,5.3H234.51a7,7,0,0,1-6.82-5.3l-1.77-24a116.55,116.55,0,0,1-25.57-10.78L182,697.85a7.06,7.06,0,0,1-8.55-1.09L142.1,665.39a7,7,0,0,1-1.09-8.55l15.59-18.33a116.07,116.07,0,0,1-10.78-25.57l-24-1.77a7,7,0,0,1-5.3-6.83V557a7,7,0,0,1,5.3-6.83l24-1.77a116.07,116.07,0,0,1,10.78-25.57L141,504.49a7,7,0,0,1,1.09-8.55l31.37-31.37a7,7,0,0,1,8.55-1.09l18.33,15.59a116.07,116.07,0,0,1,25.57-10.78l1.77-24a7,7,0,0,1,6.82-5.3h47.36a7,7,0,0,1,6.83,5.3l1.77,24A116.07,116.07,0,0,1,316,479.07l18.33-15.59a7,7,0,0,1,8.55,1.09l31.36,31.37a7.05,7.05,0,0,1,1.1,8.55l-15.59,18.33a116,116,0,0,1,10.77,25.57l24,1.77A7,7,0,0,1,399.9,557v47.35A7,7,0,0,1,394.6,611.17ZM258.19,513.53a67.14,67.14,0,1,0,67.13,67.13A67.14,67.14,0,0,0,258.19,513.53Z"/><path class="cls-2" d="M281.87,727.37H234.51a12,12,0,0,1-11.67-9.07l-.11-.42-1.55-21A120.82,120.82,0,0,1,201,688.3l-16,13.64-.37.22a12,12,0,0,1-14.62-1.87l-31.36-31.37a12,12,0,0,1-1.88-14.61l.22-.38,13.64-16A121.36,121.36,0,0,1,142,617.67l-21-1.55-.43-.11a12,12,0,0,1-9.06-11.67V557a12,12,0,0,1,9.06-11.68l.43-.1,21-1.56a121.61,121.61,0,0,1,8.52-20.22l-13.64-16-.22-.37a12.06,12.06,0,0,1,1.88-14.62L169.93,461a12,12,0,0,1,14.62-1.87l.37.22L201,473a121.26,121.26,0,0,1,20.22-8.52l1.55-21.05.11-.42A12,12,0,0,1,234.51,434h47.36A12,12,0,0,1,293.54,443l.11.42,1.55,21.05A121.71,121.71,0,0,1,315.43,473l16-13.63.38-.22A12,12,0,0,1,346.45,461l31.37,31.37A12,12,0,0,1,379.69,507l-.22.38-13.64,16a121.3,121.3,0,0,1,8.53,20.22l21,1.56.43.1A12.06,12.06,0,0,1,404.9,557v47.35A12,12,0,0,1,395.83,616l-.43.11-21,1.55a121.4,121.4,0,0,1-8.53,20.23l13.64,16,.22.38a12,12,0,0,1-1.87,14.61l-31.37,31.37a12,12,0,0,1-14.61,1.87l-.38-.22-16-13.64a121.76,121.76,0,0,1-20.23,8.53l-1.55,21-.11.42A12,12,0,0,1,281.87,727.37Zm-49.24-11.24a2,2,0,0,0,1.88,1.24h47.36a2,2,0,0,0,1.88-1.24l2-26.94,3.35-1a112,112,0,0,0,24.47-10.31l3.05-1.74,20.56,17.49a2,2,0,0,0,2.21-.45l31.37-31.37a2,2,0,0,0,.45-2.2l-17.5-20.57,1.74-3.05a111.33,111.33,0,0,0,10.32-24.47l1-3.35,26.93-2a2,2,0,0,0,1.25-1.88V557a2.06,2.06,0,0,0-1.25-1.89l-26.93-2-1-3.35a111.13,111.13,0,0,0-10.32-24.47l-1.74-3,17.5-20.57a2,2,0,0,0-.45-2.2l-31.37-31.37a2,2,0,0,0-2.21-.46l-20.56,17.5-3.05-1.74a111,111,0,0,0-24.47-10.31l-3.35-1-2-26.94a2,2,0,0,0-1.88-1.24H234.51a2,2,0,0,0-1.88,1.24l-2,26.94-3.36,1a111.22,111.22,0,0,0-24.47,10.31l-3,1.74-20.57-17.5a2,2,0,0,0-2.21.46l-31.36,31.37a2,2,0,0,0-.46,2.2l17.5,20.57-1.74,3a111,111,0,0,0-10.31,24.47l-1,3.35-26.93,2a2,2,0,0,0-1.24,1.89v47.35a2,2,0,0,0,1.24,1.88l26.93,2,1,3.35A110.82,110.82,0,0,0,160.94,636l1.74,3.05-17.5,20.57a2,2,0,0,0,.46,2.2L177,693.22a2,2,0,0,0,2.21.45l20.57-17.49,3,1.74a111.42,111.42,0,0,0,24.47,10.31l3.36,1Zm25.56-63.33a72.14,72.14,0,1,1,72.13-72.14A72.22,72.22,0,0,1,258.19,652.8Zm0-134.27a62.14,62.14,0,1,0,62.13,62.13A62.2,62.2,0,0,0,258.19,518.53Z"/><path class="cls-2" d="M615.14,740.75l-18.74,1.38a90.54,90.54,0,0,1-8.4,19.94l12.15,14.29a5.49,5.49,0,0,1-.85,6.67l-24.46,24.45a5.5,5.5,0,0,1-6.66.86l-14.29-12.16a90.54,90.54,0,0,1-19.94,8.4l-1.38,18.74a5.5,5.5,0,0,1-5.33,4.14H490.32a5.49,5.49,0,0,1-5.32-4.14l-1.38-18.74a90.14,90.14,0,0,1-19.94-8.4l-14.29,12.16a5.51,5.51,0,0,1-6.67-.86L418.26,783a5.49,5.49,0,0,1-.85-6.67l12.16-14.29a90.57,90.57,0,0,1-8.41-19.94l-18.74-1.38a5.49,5.49,0,0,1-4.13-5.32V698.5a5.49,5.49,0,0,1,4.13-5.32l18.74-1.38a90.37,90.37,0,0,1,8.41-19.94l-12.16-14.29a5.49,5.49,0,0,1,.85-6.67l24.46-24.46a5.52,5.52,0,0,1,6.67-.85l14.29,12.16a90.64,90.64,0,0,1,19.94-8.41L485,610.61a5.49,5.49,0,0,1,5.32-4.14h36.92a5.5,5.5,0,0,1,5.33,4.14L534,629.34a91,91,0,0,1,19.94,8.41l14.29-12.16a5.51,5.51,0,0,1,6.66.85L599.3,650.9a5.49,5.49,0,0,1,.85,6.67L588,671.86a90.34,90.34,0,0,1,8.4,19.94l18.74,1.38a5.49,5.49,0,0,1,4.13,5.32v36.93A5.49,5.49,0,0,1,615.14,740.75ZM508.78,664.62A52.35,52.35,0,1,0,561.13,717,52.34,52.34,0,0,0,508.78,664.62Z"/><path class="cls-3" d="M975.82,169a567,567,0,0,0-398.06,0h0c0,313.91,199,413.48,199,413.48s199-99.57,199-413.49ZM875.93,274.77,747.3,403.4l-56.91-56.91a10,10,0,0,1,14.14-14.14l42.77,42.77L861.78,260.63a10,10,0,1,1,14.15,14.14Z"/><path class="cls-2" d="M855.36,572.3a5.15,5.15,0,0,0-4.51,5.19V876.26a20,20,0,0,1-20,20H49.44a20,20,0,0,1-20-20V366.17h522a5,5,0,0,0,4.79-6.61c-5.88-18-11.41-39.34-13.84-58.22a5,5,0,0,0-5-4.4H49.44a30,30,0,0,0-30,30V876.26a30,30,0,0,0,30,30H830.85a30,30,0,0,0,30-30v-299A5,5,0,0,0,855.36,572.3ZM131.77,322.36a11.1,11.1,0,1,1-11.1,11.1A11.12,11.12,0,0,1,131.77,322.36Zm-33.41,0a11.1,11.1,0,1,1-11.11,11.1A11.11,11.11,0,0,1,98.36,322.36Zm-33.42,0a11.1,11.1,0,1,1-11.1,11.1A11.11,11.11,0,0,1,64.94,322.36Z"/></g></svg>