<svg xmlns="http://www.w3.org/2000/svg" viewBox="0 0 1000 1000"><defs><style>.cls-1{fill:#0070ba;}.cls-2{fill:#66cb92;}</style></defs><g id="Grafik"><path class="cls-1" d="M723,303.1H408.55a5,5,0,0,1,0-10H723a5,5,0,0,1,0,10Z"/><path class="cls-1" d="M723,342.16H408.55a5,5,0,0,1,0-10H723a5,5,0,0,1,0,10Z"/><path class="cls-1" d="M723,381.22H408.55a5,5,0,1,1,0-10H723a5,5,0,0,1,0,10Z"/><path class="cls-1" d="M626.33,586l-.17.2A134.18,134.18,0,0,1,544,630.62h0l2.59-24.88a111.93,111.93,0,0,1,111.32-100.3h0A111.92,111.92,0,0,1,769.2,605.74l5.22,50.07-1.06-.1A237.54,237.54,0,0,1,626.33,586Z"/><path class="cls-1" d="M664.07,794.65H651.69a116.92,116.92,0,0,1-116.29-129l6.19-59.31a116.92,116.92,0,0,1,232.58,0l6.19,59.31a116.92,116.92,0,0,1-116.29,129ZM657.88,511.5a106.68,106.68,0,0,0-106.34,95.83l-6.19,59.3a106.91,106.91,0,0,0,106.34,118h12.38a106.92,106.92,0,0,0,106.35-118l-6.19-59.3A106.68,106.68,0,0,0,657.88,511.5Z"/><path class="cls-1" d="M775.54,662l-2.64-.25a243,243,0,0,1-146.38-67.44,139.22,139.22,0,0,1-81.86,42.33l-1.39-9.91A129.19,129.19,0,0,0,622.4,584l.17-.2a5,5,0,0,1,3.61-1.7,5,5,0,0,1,3.71,1.49,232.92,232.92,0,0,0,143.94,68.22l2.64.25Z"/><path class="cls-1" d="M657.88,743.93a71.91,71.91,0,0,1-27.63-5.49,3.5,3.5,0,0,1,2.69-6.46,65.21,65.21,0,0,0,49.88,0,3.5,3.5,0,1,1,2.69,6.46A71.87,71.87,0,0,1,657.88,743.93Z"/><path class="cls-1" d="M713.51,678.28a3.47,3.47,0,0,1-2.24-.81c-8-6.66-16.42-6.66-24.41,0a3.5,3.5,0,1,1-4.48-5.38c10.61-8.83,22.77-8.83,33.38,0a3.5,3.5,0,0,1-2.25,6.19Z"/><path class="cls-1" d="M602.25,678.28a3.5,3.5,0,0,1-2.24-6.19c10.6-8.83,22.77-8.83,33.37,0a3.5,3.5,0,0,1-4.48,5.38c-8-6.65-16.43-6.65-24.41,0A3.47,3.47,0,0,1,602.25,678.28Z"/><path class="cls-1" d="M414.56,947.36a4.88,4.88,0,0,1-.85-.07,5,5,0,0,1-4.08-5.77A188.86,188.86,0,0,1,595.76,784.65H720a188.59,188.59,0,0,1,126.54,48.66,5,5,0,0,1-6.7,7.43A178.57,178.57,0,0,0,720,794.65H595.76A178.48,178.48,0,0,0,419.48,943.21,5,5,0,0,1,414.56,947.36Z"/><polygon class="cls-2" points="798.32 200.72 745.94 157.22 693.55 200.72 693.55 32.5 798.32 32.5 798.32 200.72"/><path class="cls-1" d="M866.5,27.5h-688a55.06,55.06,0,0,0-55,55v835a55.06,55.06,0,0,0,55,55h688a10,10,0,0,0,10-10V37.5A10,10,0,0,0,866.5,27.5Zm-605.12,935V37.5H866.5v925Z"/></g></svg>