<?xml version="1.0" encoding="utf-8"?>
<!-- Generator: Adobe Illustrator 23.0.6, SVG Export Plug-In . SVG Version: 6.00 Build 0)  -->
<svg version="1.1" id="Ebene_1" xmlns="http://www.w3.org/2000/svg" xmlns:xlink="http://www.w3.org/1999/xlink" x="0px" y="0px"
	 width="1000px" height="1000px" viewBox="0 0 1000 1000" enable-background="new 0 0 1000 1000" xml:space="preserve">
<g display="none">
	<path display="inline" fill="#FFFFFF" d="M60.7,765.4c0,27.8,22.6,50.3,50.3,50.3h778c27.8,0,50.3-22.6,50.3-50.3V279.9H60.7V765.4
		z M420.9,381.2h313.5c5.4,0,9.8,4.4,9.8,9.8c0,5.4-4.4,9.8-9.8,9.8H420.9c-5.4,0-9.8-4.4-9.8-9.8
		C411.1,385.6,415.5,381.2,420.9,381.2z M420.7,424.4h177.9c5.4,0,9.8,4.4,9.8,9.8c0.1,5.5-4.3,9.8-9.7,9.8h-178
		c-5.4,0-9.8-4.4-9.8-9.8C410.9,428.8,415.3,424.4,420.7,424.4z M420,513.8h313.5c5.4,0,9.8,4.4,9.8,9.8c0.1,5.5-4.3,9.8-9.7,9.8
		H420c-5.4,0-9.8-4.4-9.8-9.8S414.6,513.8,420,513.8z M420,557.2h177.9c5.4,0,9.8,4.4,9.8,9.8c0.1,5.4-4.3,9.8-9.7,9.8H420
		c-5.4,0-9.8-4.4-9.8-9.8S414.6,557.2,420,557.2z M420,651.9h313.5c5.4,0,9.8,4.4,9.8,9.8c0.1,5.4-4.3,9.8-9.7,9.8H420
		c-5.4,0-9.8-4.4-9.8-9.8S414.6,651.9,420,651.9z M420,695.1h177.9c5.4,0,9.8,4.4,9.8,9.8c0.1,5.5-4.3,9.8-9.7,9.8H420
		c-5.4,0-9.8-4.4-9.8-9.8S414.6,695.1,420,695.1z M348.2,383.5l-48,48l-21.6-21.6l6.8-6.8l14.7,14.9l41.3-41.3L348.2,383.5z
		 M305.2,364.4c6.3,0,12.5,1.4,18.2,3.3l-7.6,7.6c-3.4-1-6.8-1.5-10.6-1.5c-21.1,0-38.3,17.3-38.3,38.3c0,21.1,17.3,38.3,38.3,38.3
		c21.1,0,38.3-17.3,38.3-38.3v0.1h9.6c0,26.4-21.6,48-48,48c-26.4,0-48-21.6-48-48C257.2,386,278.8,364.4,305.2,364.4z M347.4,516.3
		l-48,48l-21.6-21.6l6.8-6.8l14.7,14.9l41.3-41.3L347.4,516.3z M304.4,497.2c6.3,0,12.5,1.4,18.2,3.3l-7.6,7.6
		c-3.4-1-6.8-1.5-10.6-1.5c-21.1,0-38.3,17.3-38.3,38.3c0,21.1,17.3,38.3,38.3,38.3c21.1,0,38.3-17.3,38.3-38.3v0.1h9.6
		c0,26.4-21.6,48-48,48c-26.4,0-48-21.6-48-48S278,497.2,304.4,497.2z M347.4,654.2l-48,48l-21.6-21.6l6.8-6.8l14.7,14.9l41.3-41.3
		L347.4,654.2z M304.4,635.1c6.3,0,12.5,1.4,18.2,3.3l-7.6,7.6c-3.4-1-6.8-1.5-10.6-1.5c-21.1,0-38.3,17.3-38.3,38.3
		s17.3,38.3,38.3,38.3c21.1,0,38.3-17.3,38.3-38.3v0.1h9.6c0,26.4-21.6,48-48,48c-26.4,0-48-21.6-48-48S278,635.1,304.4,635.1z"/>
	<path display="inline" fill="#0070BA" d="M889,173.5H111c-33.6,0-61.1,27.5-61.1,61.1v530.9c0,33.6,27.5,61.1,61.1,61.1h778
		c33.6,0,61.1-27.5,61.1-61.1V234.6C950.1,200.9,922.7,173.5,889,173.5z M939.3,765.4c0,27.8-22.6,50.3-50.3,50.3H111
		c-27.8,0-50.3-22.6-50.3-50.3V279.9h878.6V765.4z M859.9,226.4c0,8.1-6.6,14.7-14.7,14.7s-14.7-6.6-14.7-14.7
		c0-8.1,6.6-14.7,14.7-14.7S859.9,218.3,859.9,226.4z M816.7,226.4c0,8.1-6.6,14.7-14.7,14.7s-14.7-6.6-14.7-14.7
		c0-8.1,6.6-14.7,14.7-14.7S816.7,218.3,816.7,226.4z M888.3,211.7c8.1,0,14.7,6.6,14.7,14.7c0,8.1-6.6,14.7-14.7,14.7
		s-14.7-6.6-14.7-14.7C873.6,218.3,880.2,211.7,888.3,211.7z"/>
	<polygon display="inline" fill="#66CB92" points="285.4,403.1 278.7,409.9 300.3,431.5 348.2,383.5 341.4,376.7 300.2,418 	"/>
	<path display="inline" fill="#66CB92" d="M305.2,460.3c26.4,0,48-21.6,48-48h-9.6v-0.1c0,21.1-17.3,38.3-38.3,38.3
		c-21.1,0-38.3-17.3-38.3-38.3c0-21.1,17.3-38.3,38.3-38.3c3.8,0,7.2,0.5,10.6,1.5l7.6-7.6c-5.8-2-12-3.3-18.2-3.3
		c-26.4,0-48,21.6-48,48C257.2,438.7,278.8,460.3,305.2,460.3z"/>
	<path display="inline" fill="#66CB92" d="M420.9,400.8h313.5c5.4,0,9.8-4.4,9.8-9.8c0-5.4-4.4-9.8-9.8-9.8H420.9
		c-5.4,0-9.8,4.4-9.8,9.8C411.1,396.4,415.5,400.8,420.9,400.8z"/>
	<path display="inline" fill="#0070BA" d="M420.7,444h178c5.4,0,9.8-4.3,9.7-9.8c0-5.4-4.4-9.8-9.8-9.8H420.7
		c-5.4,0-9.8,4.4-9.8,9.8C410.9,439.6,415.3,444,420.7,444z"/>
	<polygon display="inline" fill="#66CB92" points="284.7,535.9 277.9,542.7 299.5,564.2 347.4,516.3 340.7,509.5 299.4,550.8 	"/>
	<path display="inline" fill="#66CB92" d="M304.4,593.1c26.4,0,48-21.6,48-48h-9.6V545c0,21.1-17.3,38.3-38.3,38.3
		c-21.1,0-38.3-17.3-38.3-38.3c0-21.1,17.3-38.3,38.3-38.3c3.8,0,7.2,0.5,10.6,1.5l7.6-7.6c-5.8-2-12-3.3-18.2-3.3
		c-26.4,0-48,21.6-48,48S278,593.1,304.4,593.1z"/>
	<path display="inline" fill="#66CB92" d="M420,533.4h313.6c5.4,0,9.8-4.3,9.7-9.8c0-5.4-4.4-9.8-9.8-9.8H420
		c-5.4,0-9.8,4.4-9.8,9.8S414.6,533.4,420,533.4z"/>
	<path display="inline" fill="#0070BA" d="M420,576.8h178c5.4,0,9.8-4.4,9.7-9.8c0-5.4-4.4-9.8-9.8-9.8H420c-5.4,0-9.8,4.4-9.8,9.8
		S414.6,576.8,420,576.8z"/>
	<path display="inline" fill="#66CB92" d="M304.4,731c26.4,0,48-21.6,48-48h-9.6V683c0,21.1-17.3,38.3-38.3,38.3
		c-21.1,0-38.3-17.3-38.3-38.3s17.3-38.3,38.3-38.3c3.8,0,7.2,0.5,10.6,1.5l7.6-7.6c-5.8-2-12-3.3-18.2-3.3c-26.4,0-48,21.6-48,48
		S278,731,304.4,731z"/>
	<polygon display="inline" fill="#66CB92" points="284.7,673.9 277.9,680.6 299.5,702.2 347.4,654.2 340.7,647.5 299.4,688.8 	"/>
	<path display="inline" fill="#66CB92" d="M420,671.5h313.6c5.4,0,9.8-4.4,9.7-9.8c0-5.4-4.4-9.8-9.8-9.8H420
		c-5.4,0-9.8,4.4-9.8,9.8S414.6,671.5,420,671.5z"/>
	<path display="inline" fill="#0070BA" d="M420,714.8h178c5.4,0,9.8-4.3,9.7-9.8c0-5.4-4.4-9.8-9.8-9.8H420c-5.4,0-9.8,4.4-9.8,9.8
		S414.6,714.8,420,714.8z"/>
	<circle display="inline" fill="#FFFFFF" cx="802" cy="226.4" r="14.7"/>
	<circle display="inline" fill="#FFFFFF" cx="845.2" cy="226.4" r="14.7"/>
	<circle display="inline" fill="#FFFFFF" cx="888.3" cy="226.4" r="14.7"/>
</g>
<g>
	<path fill="none" d="M623.1,752.1H706c48.7,0,91.6,24.9,116.7,62.6V124.2H304v751.5H484C492.1,806.1,551.3,752.1,623.1,752.1z
		 M758.3,629.1c-8.1,51.6-56.5,86.8-108.1,78.7c-51.6-8.1-86.8-56.5-78.7-108.1c8.1-51.6,56.5-86.8,108.1-78.7
		C731.2,529.2,766.4,577.6,758.3,629.1z M411.9,215.3h298.7v16.3H411.9V215.3z M411.9,267.8h298.7v16.3H411.9V267.8z M411.9,320.3
		h298.7v16.3H411.9V320.3z"/>
	<path fill="#66CB92" d="M706,752.1h-82.9c-71.8,0-131,54-139.1,123.7h338.6v-61.1C797.6,776.9,754.7,752.1,706,752.1z"/>
	<path fill="#0070BA" d="M835.5,888.6v-49.8V663.4v-552H205.9c-22.8,0-41.4,18.6-41.4,41.4v694.3c0,22.8,18.6,41.4,41.4,41.4h181.5
		h95.7H835.5z M304,875.8V124.2h518.7v690.4v61.1H484H304z"/>
	
		<ellipse transform="matrix(0.7071 -0.7071 0.7071 0.7071 -239.7276 650.157)" fill="#66CB92" cx="664.9" cy="614.5" rx="94.5" ry="94.5"/>
	<rect x="411.9" y="320.3" fill="#66CB92" width="298.7" height="16.3"/>
	<rect x="411.9" y="267.8" fill="#0070BA" width="298.7" height="16.3"/>
	<rect x="411.9" y="215.3" fill="#66CB92" width="298.7" height="16.3"/>
</g>
</svg>
