<svg width="86" height="80" xmlns="http://www.w3.org/2000/svg"><g fill="none" fill-rule="evenodd"><path d="M76 80H10C4.486 80 0 75.514 0 70a2 2 0 0 1 4 0c0 3.309 2.691 6 6 6h66c3.309 0 6-2.691 6-6a2 2 0 0 1 4 0c0 5.514-4.486 10-10 10" fill="#FC6D26"/><path d="M84 72a2 2 0 0 1-2-2V10c0-3.309-2.691-6-6-6H10c-3.309 0-6 2.691-6 6v60a2 2 0 0 1-4 0V10C0 4.486 4.486 0 10 0h66c5.514 0 10 4.486 10 10v60a2 2 0 0 1-2 2" fill="#E24329"/><path d="M22.846 34.727h-8a2 2 0 0 1 0-4h8a2 2 0 0 1 0 4" fill="#FC6D26"/><path d="M30.846 26.727h-8a2 2 0 0 1 0-4h8a2 2 0 0 1 0 4M30.846 42.727h-8a2 2 0 0 1 0-4h8a2 2 0 0 1 0 4" fill="#FCA326"/><path d="M25.192 62.809a2 2 0 0 1-1.414-3.414L52.062 31.11a2 2 0 1 1 2.828 2.828L26.606 62.223a1.992 1.992 0 0 1-1.414.586" fill="#E24329"/><path d="M60.846 19.777c-1.654 0-3 1.346-3 3s1.346 3 3 3 3-1.346 3-3-1.346-3-3-3m0 10c-3.86 0-7-3.14-7-7s3.14-7 7-7c3.859 0 7 3.14 7 7s-3.141 7-7 7" fill="#FCA326"/><path d="M43.577 64.223a2 2 0 0 1-1.414-3.414l9.9-9.9-8.485-8.485a2 2 0 1 1 2.828-2.828l9.9 9.899a2 2 0 0 1 0 2.829L44.991 63.637a1.992 1.992 0 0 1-1.414.586" fill="#FC6D26"/><path d="M61.255 42.302a2 2 0 0 1-1.414-.586L45.699 27.574l-8.485 8.485a2 2 0 1 1-2.828-2.828l9.899-9.899c.75-.75 2.078-.75 2.828 0l14.142 14.141 8.485-8.484a1.998 1.998 0 0 1 2.828 0c.782.78.782 2.047 0 2.828l-9.9 9.9a2 2 0 0 1-1.413.585" fill="#FC6D26"/></g></svg>