<?xml version="1.0" encoding="UTF-8" standalone="no"?>
<!-- Generator: Adobe Illustrator 16.0.4, SVG Export Plug-In . SVG Version: 6.00 Build 0)  -->

<svg
   xmlns:dc="http://purl.org/dc/elements/1.1/"
   xmlns:cc="http://creativecommons.org/ns#"
   xmlns:rdf="http://www.w3.org/1999/02/22-rdf-syntax-ns#"
   xmlns:svg="http://www.w3.org/2000/svg"
   xmlns="http://www.w3.org/2000/svg"
   xmlns:sodipodi="http://sodipodi.sourceforge.net/DTD/sodipodi-0.dtd"
   xmlns:inkscape="http://www.inkscape.org/namespaces/inkscape"
   version="1.1"
   id="Ebene_1"
   x="0px"
   y="0px"
   width="150"
   height="150"
   viewBox="0 0 150 150"
   enable-background="new 0 0 700 150"
   xml:space="preserve"
   sodipodi:docname="OpenProject-Logo-2018.svg"
   inkscape:version="0.92.3 (2405546, 2018-03-11)"><metadata
   id="metadata39"><rdf:RDF><cc:Work
       rdf:about=""><dc:format>image/svg+xml</dc:format><dc:type
         rdf:resource="http://purl.org/dc/dcmitype/StillImage" /><dc:title></dc:title></cc:Work></rdf:RDF></metadata><defs
   id="defs37">
	
	
</defs><sodipodi:namedview
   pagecolor="#ffffff"
   bordercolor="#666666"
   borderopacity="1"
   objecttolerance="10"
   gridtolerance="10"
   guidetolerance="10"
   inkscape:pageopacity="0"
   inkscape:pageshadow="2"
   inkscape:window-width="640"
   inkscape:window-height="480"
   id="namedview35"
   showgrid="false"
   inkscape:zoom="0.63142857"
   inkscape:cx="11.085973"
   inkscape:cy="75"
   inkscape:current-layer="Ebene_1" />
<g
   id="g30">
		<path
   style="fill:#fff"
   inkscape:connector-curvature="0"
   id="path26"
   d="m 78,108 h 0.013 C 78.01,108 78,108.085 78,108.167 c 0,4.01 3.357,7.223 7.5,7.223 4.143,0 7.5,-3.195 7.5,-7.205 C 93,108.104 92.99,108 92.987,108 H 93 V 90 H 78 Z" />
		<path
   style="fill:#fff"
   inkscape:connector-curvature="0"
   id="path28"
   d="M 113,11 H 103 C 89.193,11 78,22.045 78,35.853 v 11 9 V 66 H 44 43 34 C 20.193,66 9,77.046 9,90.853 v 20 C 9,124.659 20.193,136 34,136 h 10 c 13.807,0 25,-11.341 25,-25.147 v -20 C 69,90.518 68.988,90 68.975,90 H 54 v 0.853 7 13 C 54,116.366 49.514,121 44,121 H 34 c -5.514,0 -10,-4.634 -10,-10.147 v -20 C 24,85.339 28.486,81 34,81 h 8 1 1 22.914 2.086 34 7 3 c 13.807,0 25,-11.341 25,-25.147 v -20 C 138,22.045 126.807,11 113,11 Z m 10,44.853 C 123,61.367 118.514,66 113,66 h -3 -3 -4 -10 v -10.147 -9 -1 -10 C 93,30.338 97.486,26 103,26 h 10 c 5.514,0 10,4.338 10,9.853 z" />
	</g>
</svg>